<mxfile host="Electron" modified="2023-11-15T23:34:35.439Z" agent="Mozilla/5.0 (Windows NT 10.0; Win64; x64) AppleWebKit/537.36 (KHTML, like Gecko) draw.io/22.0.3 Chrome/114.0.5735.289 Electron/25.8.4 Safari/537.36" version="22.0.3" etag="e8R_IM4-essgiNCnK9NZ" type="device">
  <diagram id="xXOdHvXqeEBseT0HI0yR" name="Page-1">
    <mxGraphModel dx="2301" dy="1657" grid="1" gridSize="10" guides="1" tooltips="1" connect="1" arrows="1" fold="1" page="1" pageScale="1" pageWidth="3300" pageHeight="4681" math="1" shadow="0">
      <root>
        <mxCell id="0" />
        <mxCell id="1" parent="0" />
        <object label="" placeholders="1" class_name="CBDA" id="o9_Hu9leTdO1mMAxPBlP-1">
          <mxCell style="rounded=0;whiteSpace=wrap;html=1;fillColor=#fff2cc;strokeColor=#d6b656;container=0;connectable=0;allowArrows=0;treeFolding=0;moveCells=0;treeMoving=0;comic=0;rotatable=0;expand=1;autosize=1;resizeWidth=1;resizeHeight=1;metaEdit=1;fontSize=16;" vertex="1" parent="1">
            <mxGeometry x="150" y="515" width="660" height="390" as="geometry">
              <mxRectangle x="40" y="400" width="50" height="40" as="alternateBounds" />
            </mxGeometry>
          </mxCell>
        </object>
        <object label="CBDA" placeholders="1" id="o9_Hu9leTdO1mMAxPBlP-2">
          <mxCell style="rounded=0;whiteSpace=wrap;html=1;fillColor=#ffffff;fontSize=18;connectable=0;allowArrows=0;rotatable=0;cloneable=0;deletable=0;" vertex="1" parent="o9_Hu9leTdO1mMAxPBlP-1">
            <mxGeometry x="10" y="21.67" width="640" height="43.33" as="geometry" />
          </mxCell>
        </object>
        <mxCell id="o9_Hu9leTdO1mMAxPBlP-3" value="" style="rounded=0;whiteSpace=wrap;html=1;fillColor=#ffffff;connectable=0;allowArrows=0;container=1;collapsible=0;portConstraintRotation=0;rotatable=0;cloneable=0;deletable=0;recursiveResize=0;fontSize=16;" vertex="1" parent="o9_Hu9leTdO1mMAxPBlP-1">
          <mxGeometry x="10" y="75.83" width="640" height="292.5" as="geometry">
            <mxRectangle x="10" y="70" width="50" height="40" as="alternateBounds" />
          </mxGeometry>
        </mxCell>
        <object label="%name%" placeholders="1" name="xA" class_name="OutputPort" id="hXlyNSFhqgzhnjsDfEkS-3">
          <mxCell style="triangle;fillColor=#ffffff;fontSize=14;points=[[0,0.5],[1,0.5]];allowArrows=0;verticalAlign=middle;horizontal=1;spacingTop=0;align=left;spacingLeft=4;spacingRight=0;html=1;comic=0;treeFolding=0;treeMoving=0;movable=1;resizable=0;rotatable=1;deletable=1;editable=1;connectable=1;movableLabel=1;spacing=2;aspect=fixed;metaEdit=1;" vertex="1" parent="o9_Hu9leTdO1mMAxPBlP-3">
            <mxGeometry x="520" y="56.87499999999999" width="10" height="15" as="geometry">
              <mxPoint x="5" y="-7" as="offset" />
            </mxGeometry>
          </mxCell>
        </object>
        <object label="%symbol%" class_name="IntegratorBlock" block_name="int1" symbol="&amp;int;" placeholders="1" id="hXlyNSFhqgzhnjsDfEkS-6">
          <mxCell style="shape=stencil(7ZVNDoMgEIVPw95IF24b294DFSuRggGq7e3LjzYSS6NRdybGMM7jyzi8CQCmskINBnFUAXgBcZxE+qXDzg+RbHCu3LcWCYIyil1GKsFr3JFC9QTCKiyIMll4BdFZa8zzXcA054xpGuFMepKJEMS3kHakylBe3wV/suIfbVA3yBQ60f1UD3sevDUterkf7Fvy9iJd6lIqJWxEhftgEx972qncZCvuZticcomXbbWGC/jDd2XAciNRyQWeb8qSUOoGKVjxYeTDyOuOe6eDWd/AWXM3SOeOiYUGplAvbNrdfTbzAQ==);whiteSpace=wrap;html=1;aspect=fixed;resizable=0;container=1;collapsible=0;spacingLeft=5;connectable=0;allowArrows=0;fontSize=36;spacingTop=7;metaEdit=1;" vertex="1" parent="o9_Hu9leTdO1mMAxPBlP-3">
            <mxGeometry x="350" y="135.41666666666666" width="80" height="80" as="geometry" />
          </mxCell>
        </object>
        <object label="%name%" placeholders="1" name="OUT1" class_name="OutputPort" id="hXlyNSFhqgzhnjsDfEkS-7">
          <mxCell style="triangle;fillColor=#ffffff;fontSize=14;points=[[1,0.5]];allowArrows=0;verticalAlign=middle;horizontal=1;spacingTop=0;align=left;spacingLeft=4;spacingRight=0;html=1;comic=0;treeFolding=0;treeMoving=0;movable=1;resizable=0;rotatable=1;deletable=1;editable=1;connectable=1;movableLabel=1;spacing=2;aspect=fixed;metaEdit=1;" vertex="1" parent="hXlyNSFhqgzhnjsDfEkS-6">
            <mxGeometry x="70" y="32.75" width="10" height="15" as="geometry">
              <mxPoint x="5" y="-7" as="offset" />
            </mxGeometry>
          </mxCell>
        </object>
        <object label="%name%" placeholders="1" name="IC" class_name="InputPort" id="hXlyNSFhqgzhnjsDfEkS-8">
          <mxCell style="triangle;fontSize=14;points=[[0,0.5]];allowArrows=0;verticalAlign=middle;horizontal=1;spacingTop=0;align=right;spacingLeft=0;spacingRight=8;html=1;comic=0;treeFolding=0;treeMoving=0;resizable=0;movableLabel=1;spacing=2;aspect=fixed;fillColor=#000000;metaEdit=1;" vertex="1" parent="hXlyNSFhqgzhnjsDfEkS-6">
            <mxGeometry y="16.120000000000005" width="10" height="15" as="geometry">
              <mxPoint x="-9" y="-13" as="offset" />
            </mxGeometry>
          </mxCell>
        </object>
        <object label="%name%" placeholders="1" name="IN1" class_name="InputPort" id="hXlyNSFhqgzhnjsDfEkS-9">
          <mxCell style="triangle;fontSize=14;points=[[0,0.5]];allowArrows=0;verticalAlign=middle;horizontal=1;spacingTop=0;align=right;spacingLeft=0;spacingRight=8;html=1;comic=0;treeFolding=0;treeMoving=0;resizable=0;movableLabel=1;spacing=2;aspect=fixed;fillColor=#000000;metaEdit=1;" vertex="1" parent="hXlyNSFhqgzhnjsDfEkS-6">
            <mxGeometry y="48.870000000000005" width="10" height="15" as="geometry">
              <mxPoint x="-10" y="-10" as="offset" />
            </mxGeometry>
          </mxCell>
        </object>
        <object label="%symbol%" class_name="IntegratorBlock" block_name="int2" symbol="&amp;int;" placeholders="1" id="hXlyNSFhqgzhnjsDfEkS-10">
          <mxCell style="shape=stencil(7ZVNDoMgEIVPw95IF24b294DFSuRggGq7e3LjzYSS6NRdybGMM7jyzi8CQCmskINBnFUAXgBcZxE+qXDzg+RbHCu3LcWCYIyil1GKsFr3JFC9QTCKiyIMll4BdFZa8zzXcA054xpGuFMepKJEMS3kHakylBe3wV/suIfbVA3yBQ60f1UD3sevDUterkf7Fvy9iJd6lIqJWxEhftgEx972qncZCvuZticcomXbbWGC/jDd2XAciNRyQWeb8qSUOoGKVjxYeTDyOuOe6eDWd/AWXM3SOeOiYUGplAvbNrdfTbzAQ==);whiteSpace=wrap;html=1;aspect=fixed;resizable=0;container=1;collapsible=0;spacingLeft=5;connectable=0;allowArrows=0;fontSize=36;spacingTop=7;metaEdit=1;" vertex="1" parent="o9_Hu9leTdO1mMAxPBlP-3">
            <mxGeometry x="160" y="151.66666666666666" width="80" height="80" as="geometry" />
          </mxCell>
        </object>
        <object label="%name%" placeholders="1" name="OUT1" class_name="OutputPort" id="hXlyNSFhqgzhnjsDfEkS-11">
          <mxCell style="triangle;fillColor=#ffffff;fontSize=14;points=[[1,0.5]];allowArrows=0;verticalAlign=middle;horizontal=1;spacingTop=0;align=left;spacingLeft=4;spacingRight=0;html=1;comic=0;treeFolding=0;treeMoving=0;movable=1;resizable=0;rotatable=1;deletable=1;editable=1;connectable=1;movableLabel=1;spacing=2;aspect=fixed;metaEdit=1;" vertex="1" parent="hXlyNSFhqgzhnjsDfEkS-10">
            <mxGeometry x="70" y="32.75" width="10" height="15" as="geometry">
              <mxPoint x="5" y="-7" as="offset" />
            </mxGeometry>
          </mxCell>
        </object>
        <object label="%name%" placeholders="1" name="IC" class_name="InputPort" id="hXlyNSFhqgzhnjsDfEkS-12">
          <mxCell style="triangle;fontSize=14;points=[[0,0.5]];allowArrows=0;verticalAlign=middle;horizontal=1;spacingTop=0;align=right;spacingLeft=0;spacingRight=8;html=1;comic=0;treeFolding=0;treeMoving=0;resizable=0;movableLabel=1;spacing=2;aspect=fixed;fillColor=#000000;metaEdit=1;" vertex="1" parent="hXlyNSFhqgzhnjsDfEkS-10">
            <mxGeometry y="16.120000000000005" width="10" height="15" as="geometry">
              <mxPoint x="-14" y="-13" as="offset" />
            </mxGeometry>
          </mxCell>
        </object>
        <object label="%name%" placeholders="1" name="IN1" class_name="InputPort" id="hXlyNSFhqgzhnjsDfEkS-13">
          <mxCell style="triangle;fontSize=14;points=[[0,0.5]];allowArrows=0;verticalAlign=middle;horizontal=1;spacingTop=0;align=right;spacingLeft=0;spacingRight=8;html=1;comic=0;treeFolding=0;treeMoving=0;resizable=0;movableLabel=1;spacing=2;aspect=fixed;fillColor=#000000;metaEdit=1;" vertex="1" parent="hXlyNSFhqgzhnjsDfEkS-10">
            <mxGeometry y="48.870000000000005" width="10" height="15" as="geometry">
              <mxPoint x="-12" y="-12" as="offset" />
            </mxGeometry>
          </mxCell>
        </object>
        <object label="%symbol%" placeholders="1" symbol="-" class_name="NegatorBlock" block_name="neg" id="qsSG8gPUDR_lC_2sc5EW-2">
          <mxCell style="triangle;whiteSpace=wrap;html=1;comic=0;fontSize=36;align=center;allowArrows=0;recursiveResize=0;resizable=0;fillColor=#FFFFFF;points=[];spacingLeft=-5;container=1;collapsible=0;spacingTop=-6;metaEdit=1;connectable=0;" vertex="1" parent="o9_Hu9leTdO1mMAxPBlP-3">
            <mxGeometry x="520" y="135.41666666666666" width="60" height="80" as="geometry" />
          </mxCell>
        </object>
        <object label="%name%" placeholders="1" name="OUT1" class_name="OutputPort" id="qsSG8gPUDR_lC_2sc5EW-3">
          <mxCell style="triangle;fillColor=#ffffff;fontSize=14;points=[[1,0.5]];allowArrows=0;verticalAlign=middle;horizontal=1;spacingTop=0;align=left;spacingLeft=4;spacingRight=0;html=1;comic=0;treeFolding=0;treeMoving=0;movable=1;resizable=0;rotatable=1;deletable=1;editable=1;connectable=1;movableLabel=1;spacing=2;aspect=fixed;metaEdit=1;" vertex="1" parent="qsSG8gPUDR_lC_2sc5EW-2">
            <mxGeometry x="50" y="32.5" width="10" height="15" as="geometry">
              <mxPoint x="5" y="-7" as="offset" />
            </mxGeometry>
          </mxCell>
        </object>
        <object label="%name%" placeholders="1" name="IN1" class_name="InputPort" id="qsSG8gPUDR_lC_2sc5EW-4">
          <mxCell style="triangle;fontSize=14;points=[[0,0.5]];allowArrows=0;verticalAlign=middle;horizontal=1;spacingTop=0;align=right;spacingLeft=0;spacingRight=8;html=1;comic=0;treeFolding=0;treeMoving=0;resizable=0;movableLabel=1;spacing=2;aspect=fixed;fillColor=#000000;metaEdit=1;" vertex="1" parent="qsSG8gPUDR_lC_2sc5EW-2">
            <mxGeometry y="32.5" width="10" height="15" as="geometry">
              <mxPoint x="-11" y="-8" as="offset" />
            </mxGeometry>
          </mxCell>
        </object>
        <object label="%value%" placeholders="1" value="0" block_name="zeroCt" class_name="ConstantBlock" id="qsSG8gPUDR_lC_2sc5EW-8">
          <mxCell style="ellipse;whiteSpace=wrap;html=1;comic=0;fillColor=#ffffff;fontSize=24;align=center;allowArrows=0;connectable=0;container=1;collapsible=0;recursiveResize=1;direction=west;resizable=0;metaEdit=1;" vertex="1" parent="o9_Hu9leTdO1mMAxPBlP-3">
            <mxGeometry x="220" y="21.666666666666664" width="80" height="80" as="geometry" />
          </mxCell>
        </object>
        <object label="%name%" placeholders="1" name="OUT1" class_name="OutputPort" id="qsSG8gPUDR_lC_2sc5EW-9">
          <mxCell style="triangle;fillColor=#ffffff;fontSize=14;points=[[1,0.5]];allowArrows=0;verticalAlign=middle;horizontal=1;spacingTop=0;align=left;spacingLeft=4;spacingRight=0;html=1;comic=0;treeFolding=0;treeMoving=0;movable=1;resizable=0;rotatable=1;deletable=1;editable=1;connectable=1;movableLabel=1;spacing=2;aspect=fixed;metaEdit=1;" vertex="1" parent="qsSG8gPUDR_lC_2sc5EW-8">
            <mxGeometry x="70" y="32.5" width="10" height="15" as="geometry">
              <mxPoint x="6" y="-7" as="offset" />
            </mxGeometry>
          </mxCell>
        </object>
        <object label="%value%" placeholders="1" value="1" block_name="oneCt" class_name="ConstantBlock" id="qsSG8gPUDR_lC_2sc5EW-10">
          <mxCell style="ellipse;whiteSpace=wrap;html=1;comic=0;fillColor=#ffffff;fontSize=24;align=center;allowArrows=0;connectable=0;container=1;collapsible=0;recursiveResize=1;direction=west;resizable=0;metaEdit=1;" vertex="1" parent="o9_Hu9leTdO1mMAxPBlP-3">
            <mxGeometry x="20" y="21.666666666666664" width="80" height="80" as="geometry" />
          </mxCell>
        </object>
        <object label="%name%" placeholders="1" name="OUT1" class_name="OutputPort" id="qsSG8gPUDR_lC_2sc5EW-11">
          <mxCell style="triangle;fillColor=#ffffff;fontSize=14;points=[[1,0.5]];allowArrows=0;verticalAlign=middle;horizontal=1;spacingTop=0;align=left;spacingLeft=4;spacingRight=0;html=1;comic=0;treeFolding=0;treeMoving=0;movable=1;resizable=0;rotatable=1;deletable=1;editable=1;connectable=1;movableLabel=1;spacing=2;aspect=fixed;metaEdit=1;" vertex="1" parent="qsSG8gPUDR_lC_2sc5EW-10">
            <mxGeometry x="70" y="32.5" width="10" height="15" as="geometry">
              <mxPoint x="6" y="-7" as="offset" />
            </mxGeometry>
          </mxCell>
        </object>
        <mxCell id="-m17ohVcplY_PO84nw72-1" style="edgeStyle=orthogonalEdgeStyle;rounded=1;orthogonalLoop=1;jettySize=auto;html=1;exitX=1;exitY=0.5;exitDx=0;exitDy=0;entryX=0;entryY=0.5;entryDx=0;entryDy=0;fontSize=12;startSize=8;endSize=8;" edge="1" parent="o9_Hu9leTdO1mMAxPBlP-3" source="qsSG8gPUDR_lC_2sc5EW-9" target="hXlyNSFhqgzhnjsDfEkS-8">
          <mxGeometry relative="1" as="geometry" />
        </mxCell>
        <mxCell id="-m17ohVcplY_PO84nw72-2" style="edgeStyle=orthogonalEdgeStyle;orthogonalLoop=1;jettySize=auto;html=1;exitX=1;exitY=0.5;exitDx=0;exitDy=0;entryX=0;entryY=0.5;entryDx=0;entryDy=0;fontSize=12;startSize=8;endSize=8;rounded=1;" edge="1" parent="o9_Hu9leTdO1mMAxPBlP-3" source="qsSG8gPUDR_lC_2sc5EW-11" target="hXlyNSFhqgzhnjsDfEkS-12">
          <mxGeometry relative="1" as="geometry">
            <Array as="points">
              <mxPoint x="130" y="62" />
              <mxPoint x="130" y="175" />
            </Array>
          </mxGeometry>
        </mxCell>
        <mxCell id="-m17ohVcplY_PO84nw72-3" style="edgeStyle=none;curved=1;rounded=0;orthogonalLoop=1;jettySize=auto;html=1;exitX=1;exitY=0.5;exitDx=0;exitDy=0;fontSize=12;startSize=8;endSize=8;" edge="1" parent="o9_Hu9leTdO1mMAxPBlP-3" source="hXlyNSFhqgzhnjsDfEkS-11" target="hXlyNSFhqgzhnjsDfEkS-9">
          <mxGeometry relative="1" as="geometry" />
        </mxCell>
        <mxCell id="-m17ohVcplY_PO84nw72-4" style="edgeStyle=none;curved=1;rounded=0;orthogonalLoop=1;jettySize=auto;html=1;exitX=1;exitY=0.5;exitDx=0;exitDy=0;fontSize=12;startSize=8;endSize=8;" edge="1" parent="o9_Hu9leTdO1mMAxPBlP-3" source="hXlyNSFhqgzhnjsDfEkS-7" target="qsSG8gPUDR_lC_2sc5EW-4">
          <mxGeometry relative="1" as="geometry" />
        </mxCell>
        <mxCell id="-m17ohVcplY_PO84nw72-6" style="edgeStyle=orthogonalEdgeStyle;rounded=1;orthogonalLoop=1;jettySize=auto;html=1;exitX=1;exitY=0.5;exitDx=0;exitDy=0;entryX=0;entryY=0.5;entryDx=0;entryDy=0;fontSize=12;startSize=8;endSize=8;" edge="1" parent="o9_Hu9leTdO1mMAxPBlP-3" source="hXlyNSFhqgzhnjsDfEkS-7" target="hXlyNSFhqgzhnjsDfEkS-3">
          <mxGeometry relative="1" as="geometry" />
        </mxCell>
        <mxCell id="-m17ohVcplY_PO84nw72-7" style="edgeStyle=orthogonalEdgeStyle;rounded=1;orthogonalLoop=1;jettySize=auto;html=1;exitX=1;exitY=0.5;exitDx=0;exitDy=0;fontSize=12;startSize=8;endSize=8;" edge="1" parent="o9_Hu9leTdO1mMAxPBlP-3" source="qsSG8gPUDR_lC_2sc5EW-3" target="hXlyNSFhqgzhnjsDfEkS-13">
          <mxGeometry relative="1" as="geometry">
            <Array as="points">
              <mxPoint x="600" y="175" />
              <mxPoint x="600" y="271" />
              <mxPoint x="130" y="271" />
              <mxPoint x="130" y="212" />
            </Array>
          </mxGeometry>
        </mxCell>
        <object label="" placeholders="1" class_name="CBDB" id="vdYazuG1KC_B4ggB75WZ-26">
          <mxCell style="rounded=0;whiteSpace=wrap;html=1;fillColor=#fff2cc;strokeColor=#d6b656;container=0;connectable=0;allowArrows=0;treeFolding=0;moveCells=0;treeMoving=0;comic=0;rotatable=0;expand=1;autosize=1;resizeWidth=1;resizeHeight=1;metaEdit=1;fontSize=16;" vertex="1" parent="1">
            <mxGeometry x="150" y="1085" width="660" height="390" as="geometry">
              <mxRectangle x="40" y="400" width="50" height="40" as="alternateBounds" />
            </mxGeometry>
          </mxCell>
        </object>
        <object label="CBDB" placeholders="1" id="vdYazuG1KC_B4ggB75WZ-27">
          <mxCell style="rounded=0;whiteSpace=wrap;html=1;fillColor=#ffffff;fontSize=18;connectable=0;allowArrows=0;rotatable=0;cloneable=0;deletable=0;" vertex="1" parent="vdYazuG1KC_B4ggB75WZ-26">
            <mxGeometry x="10" y="21.67" width="640" height="43.33" as="geometry" />
          </mxCell>
        </object>
        <mxCell id="vdYazuG1KC_B4ggB75WZ-28" value="" style="rounded=0;whiteSpace=wrap;html=1;fillColor=#ffffff;connectable=0;allowArrows=0;container=1;collapsible=0;portConstraintRotation=0;rotatable=0;cloneable=0;deletable=0;recursiveResize=0;fontSize=16;" vertex="1" parent="vdYazuG1KC_B4ggB75WZ-26">
          <mxGeometry x="10" y="75.83" width="640" height="292.5" as="geometry">
            <mxRectangle x="10" y="70" width="50" height="40" as="alternateBounds" />
          </mxGeometry>
        </mxCell>
        <object label="%name%" placeholders="1" name="xB" class_name="OutputPort" id="vdYazuG1KC_B4ggB75WZ-51">
          <mxCell style="triangle;fillColor=#ffffff;fontSize=14;points=[[0,0.5],[1,0.5]];allowArrows=0;verticalAlign=middle;horizontal=1;spacingTop=0;align=left;spacingLeft=4;spacingRight=0;html=1;comic=0;treeFolding=0;treeMoving=0;movable=1;resizable=0;rotatable=1;deletable=1;editable=1;connectable=1;movableLabel=1;spacing=2;aspect=fixed;metaEdit=1;" vertex="1" parent="vdYazuG1KC_B4ggB75WZ-28">
            <mxGeometry x="610" y="46.665" width="10" height="15" as="geometry">
              <mxPoint x="1" y="-14" as="offset" />
            </mxGeometry>
          </mxCell>
        </object>
        <object label="%symbol%" placeholders="1" symbol="-" class_name="NegatorBlock" block_name="neg" id="vdYazuG1KC_B4ggB75WZ-60">
          <mxCell style="triangle;whiteSpace=wrap;html=1;comic=0;fontSize=36;align=center;allowArrows=0;recursiveResize=0;resizable=0;fillColor=#FFFFFF;points=[];spacingLeft=-5;container=1;collapsible=0;spacingTop=-6;metaEdit=1;connectable=0;" vertex="1" parent="vdYazuG1KC_B4ggB75WZ-28">
            <mxGeometry x="500" y="127.91666666666663" width="60" height="80" as="geometry" />
          </mxCell>
        </object>
        <object label="%name%" placeholders="1" name="OUT1" class_name="OutputPort" id="vdYazuG1KC_B4ggB75WZ-61">
          <mxCell style="triangle;fillColor=#ffffff;fontSize=14;points=[[1,0.5]];allowArrows=0;verticalAlign=middle;horizontal=1;spacingTop=0;align=left;spacingLeft=4;spacingRight=0;html=1;comic=0;treeFolding=0;treeMoving=0;movable=1;resizable=0;rotatable=1;deletable=1;editable=1;connectable=1;movableLabel=1;spacing=2;aspect=fixed;metaEdit=1;" vertex="1" parent="vdYazuG1KC_B4ggB75WZ-60">
            <mxGeometry x="50" y="32.5" width="10" height="15" as="geometry">
              <mxPoint x="-5" y="13" as="offset" />
            </mxGeometry>
          </mxCell>
        </object>
        <object label="%name%" placeholders="1" name="IN1" class_name="InputPort" id="vdYazuG1KC_B4ggB75WZ-62">
          <mxCell style="triangle;fontSize=14;points=[[0,0.5]];allowArrows=0;verticalAlign=middle;horizontal=1;spacingTop=0;align=right;spacingLeft=0;spacingRight=8;html=1;comic=0;treeFolding=0;treeMoving=0;resizable=0;movableLabel=1;spacing=2;aspect=fixed;fillColor=#000000;metaEdit=1;" vertex="1" parent="vdYazuG1KC_B4ggB75WZ-60">
            <mxGeometry y="32.5" width="10" height="15" as="geometry">
              <mxPoint x="-14" y="10" as="offset" />
            </mxGeometry>
          </mxCell>
        </object>
        <object label="%value%" placeholders="1" value="0" block_name="zeroCt" class_name="ConstantBlock" id="vdYazuG1KC_B4ggB75WZ-63">
          <mxCell style="ellipse;whiteSpace=wrap;html=1;comic=0;fillColor=#ffffff;fontSize=24;align=center;allowArrows=0;connectable=0;container=1;collapsible=0;recursiveResize=1;direction=west;resizable=0;metaEdit=1;" vertex="1" parent="vdYazuG1KC_B4ggB75WZ-28">
            <mxGeometry x="220.00000000000003" y="14.166666666666629" width="80" height="80" as="geometry" />
          </mxCell>
        </object>
        <object label="%name%" placeholders="1" name="OUT1" class_name="OutputPort" id="vdYazuG1KC_B4ggB75WZ-64">
          <mxCell style="triangle;fillColor=#ffffff;fontSize=14;points=[[1,0.5]];allowArrows=0;verticalAlign=middle;horizontal=1;spacingTop=0;align=left;spacingLeft=4;spacingRight=0;html=1;comic=0;treeFolding=0;treeMoving=0;movable=1;resizable=0;rotatable=1;deletable=1;editable=1;connectable=1;movableLabel=1;spacing=2;aspect=fixed;metaEdit=1;" vertex="1" parent="vdYazuG1KC_B4ggB75WZ-63">
            <mxGeometry x="70" y="32.5" width="10" height="15" as="geometry">
              <mxPoint x="6" y="-7" as="offset" />
            </mxGeometry>
          </mxCell>
        </object>
        <object label="%value%" placeholders="1" value="1" block_name="oneCt" class_name="ConstantBlock" id="vdYazuG1KC_B4ggB75WZ-65">
          <mxCell style="ellipse;whiteSpace=wrap;html=1;comic=0;fillColor=#ffffff;fontSize=24;align=center;allowArrows=0;connectable=0;container=1;collapsible=0;recursiveResize=1;direction=west;resizable=0;metaEdit=1;" vertex="1" parent="vdYazuG1KC_B4ggB75WZ-28">
            <mxGeometry x="20.00000000000003" y="14.166666666666629" width="80" height="80" as="geometry" />
          </mxCell>
        </object>
        <object label="%name%" placeholders="1" name="OUT1" class_name="OutputPort" id="vdYazuG1KC_B4ggB75WZ-66">
          <mxCell style="triangle;fillColor=#ffffff;fontSize=14;points=[[1,0.5]];allowArrows=0;verticalAlign=middle;horizontal=1;spacingTop=0;align=left;spacingLeft=4;spacingRight=0;html=1;comic=0;treeFolding=0;treeMoving=0;movable=1;resizable=0;rotatable=1;deletable=1;editable=1;connectable=1;movableLabel=1;spacing=2;aspect=fixed;metaEdit=1;" vertex="1" parent="vdYazuG1KC_B4ggB75WZ-65">
            <mxGeometry x="70" y="32.5" width="10" height="15" as="geometry">
              <mxPoint x="6" y="-7" as="offset" />
            </mxGeometry>
          </mxCell>
        </object>
        <mxCell id="vdYazuG1KC_B4ggB75WZ-67" style="edgeStyle=orthogonalEdgeStyle;rounded=1;orthogonalLoop=1;jettySize=auto;html=1;exitX=1;exitY=0.5;exitDx=0;exitDy=0;fontSize=12;startSize=8;endSize=8;entryX=0;entryY=0.5;entryDx=0;entryDy=0;" edge="1" parent="vdYazuG1KC_B4ggB75WZ-28" source="vdYazuG1KC_B4ggB75WZ-64" target="vdYazuG1KC_B4ggB75WZ-79">
          <mxGeometry relative="1" as="geometry">
            <mxPoint x="310" y="164.16999999999996" as="targetPoint" />
            <Array as="points">
              <mxPoint x="320" y="54.16999999999996" />
              <mxPoint x="320" y="151.16999999999996" />
            </Array>
          </mxGeometry>
        </mxCell>
        <mxCell id="vdYazuG1KC_B4ggB75WZ-68" style="edgeStyle=orthogonalEdgeStyle;orthogonalLoop=1;jettySize=auto;html=1;exitX=1;exitY=0.5;exitDx=0;exitDy=0;entryX=0;entryY=0.5;entryDx=0;entryDy=0;fontSize=12;startSize=8;endSize=8;rounded=1;" edge="1" parent="vdYazuG1KC_B4ggB75WZ-28" source="vdYazuG1KC_B4ggB75WZ-66" target="vdYazuG1KC_B4ggB75WZ-75">
          <mxGeometry relative="1" as="geometry">
            <Array as="points">
              <mxPoint x="130.00000000000003" y="54.16999999999996" />
              <mxPoint x="130.00000000000003" y="168.16999999999996" />
            </Array>
            <mxPoint x="160.00000000000003" y="167.78666666666675" as="targetPoint" />
          </mxGeometry>
        </mxCell>
        <mxCell id="vdYazuG1KC_B4ggB75WZ-72" style="edgeStyle=orthogonalEdgeStyle;rounded=1;orthogonalLoop=1;jettySize=auto;html=1;exitX=1;exitY=0.5;exitDx=0;exitDy=0;fontSize=12;startSize=8;endSize=8;entryX=0;entryY=0.5;entryDx=0;entryDy=0;" edge="1" parent="vdYazuG1KC_B4ggB75WZ-28" source="vdYazuG1KC_B4ggB75WZ-61" target="vdYazuG1KC_B4ggB75WZ-76">
          <mxGeometry relative="1" as="geometry">
            <Array as="points">
              <mxPoint x="590" y="168" />
              <mxPoint x="590" y="263" />
              <mxPoint x="130" y="263" />
              <mxPoint x="130" y="200" />
              <mxPoint x="160" y="200" />
            </Array>
            <mxPoint x="160.00000000000003" y="204.48428571428587" as="targetPoint" />
          </mxGeometry>
        </mxCell>
        <object label="%symbol%" placeholders="1" symbol="&amp;part;" class_name="DerivatorBlock" block_name="der1" id="vdYazuG1KC_B4ggB75WZ-73">
          <mxCell style="whiteSpace=wrap;html=1;aspect=fixed;comic=0;fillColor=#FFFFFF;fontSize=36;align=center;resizable=0;container=1;collapsible=0;points=[];allowArrows=0;metaEdit=1;connectable=0;" vertex="1" parent="vdYazuG1KC_B4ggB75WZ-28">
            <mxGeometry x="160.00000000000003" y="144.16999999999996" width="80" height="80" as="geometry" />
          </mxCell>
        </object>
        <object label="%name%" placeholders="1" name="OUT1" class_name="OutputPort" id="vdYazuG1KC_B4ggB75WZ-74">
          <mxCell style="triangle;fillColor=#ffffff;fontSize=14;points=[[1,0.5]];allowArrows=0;verticalAlign=middle;horizontal=1;spacingTop=0;align=left;spacingLeft=4;spacingRight=0;html=1;comic=0;treeFolding=0;treeMoving=0;movable=1;resizable=0;rotatable=1;deletable=1;editable=1;connectable=1;movableLabel=1;spacing=2;aspect=fixed;metaEdit=1;" vertex="1" parent="vdYazuG1KC_B4ggB75WZ-73">
            <mxGeometry x="70" y="32.5" width="10" height="15" as="geometry">
              <mxPoint x="5" y="-7" as="offset" />
            </mxGeometry>
          </mxCell>
        </object>
        <object label="%name%" placeholders="1" name="IC" class_name="InputPort" id="vdYazuG1KC_B4ggB75WZ-75">
          <mxCell style="triangle;fontSize=14;points=[[0,0.5]];allowArrows=0;verticalAlign=middle;horizontal=1;spacingTop=0;align=right;spacingLeft=0;spacingRight=8;html=1;comic=0;treeFolding=0;treeMoving=0;resizable=0;movableLabel=1;spacing=2;aspect=fixed;fillColor=#000000;metaEdit=1;" vertex="1" parent="vdYazuG1KC_B4ggB75WZ-73">
            <mxGeometry y="16.25" width="10" height="15" as="geometry">
              <mxPoint x="-14" y="-9" as="offset" />
            </mxGeometry>
          </mxCell>
        </object>
        <object label="%name%" placeholders="1" name="IN1" class_name="InputPort" id="vdYazuG1KC_B4ggB75WZ-76">
          <mxCell style="triangle;fontSize=14;points=[[0,0.5]];allowArrows=0;verticalAlign=middle;horizontal=1;spacingTop=0;align=right;spacingLeft=0;spacingRight=8;html=1;comic=0;treeFolding=0;treeMoving=0;resizable=0;movableLabel=1;spacing=2;aspect=fixed;fillColor=#000000;metaEdit=1;" vertex="1" parent="vdYazuG1KC_B4ggB75WZ-73">
            <mxGeometry y="48.75" width="10" height="15" as="geometry">
              <mxPoint x="-11" y="-8" as="offset" />
            </mxGeometry>
          </mxCell>
        </object>
        <object label="%symbol%" placeholders="1" symbol="&amp;part;" class_name="DerivatorBlock" block_name="der2" id="vdYazuG1KC_B4ggB75WZ-77">
          <mxCell style="whiteSpace=wrap;html=1;aspect=fixed;comic=0;fillColor=#FFFFFF;fontSize=36;align=center;resizable=0;container=1;collapsible=0;points=[];allowArrows=0;metaEdit=1;connectable=0;" vertex="1" parent="vdYazuG1KC_B4ggB75WZ-28">
            <mxGeometry x="350" y="127.91999999999996" width="80" height="80" as="geometry" />
          </mxCell>
        </object>
        <object label="%name%" placeholders="1" name="OUT1" class_name="OutputPort" id="vdYazuG1KC_B4ggB75WZ-78">
          <mxCell style="triangle;fillColor=#ffffff;fontSize=14;points=[[1,0.5]];allowArrows=0;verticalAlign=middle;horizontal=1;spacingTop=0;align=left;spacingLeft=4;spacingRight=0;html=1;comic=0;treeFolding=0;treeMoving=0;movable=1;resizable=0;rotatable=1;deletable=1;editable=1;connectable=1;movableLabel=1;spacing=2;aspect=fixed;metaEdit=1;" vertex="1" parent="vdYazuG1KC_B4ggB75WZ-77">
            <mxGeometry x="70" y="32.5" width="10" height="15" as="geometry">
              <mxPoint x="5" y="-7" as="offset" />
            </mxGeometry>
          </mxCell>
        </object>
        <object label="%name%" placeholders="1" name="IC" class_name="InputPort" id="vdYazuG1KC_B4ggB75WZ-79">
          <mxCell style="triangle;fontSize=14;points=[[0,0.5]];allowArrows=0;verticalAlign=middle;horizontal=1;spacingTop=0;align=right;spacingLeft=0;spacingRight=8;html=1;comic=0;treeFolding=0;treeMoving=0;resizable=0;movableLabel=1;spacing=2;aspect=fixed;fillColor=#000000;metaEdit=1;" vertex="1" parent="vdYazuG1KC_B4ggB75WZ-77">
            <mxGeometry y="16.25" width="10" height="15" as="geometry">
              <mxPoint x="-10" y="-12" as="offset" />
            </mxGeometry>
          </mxCell>
        </object>
        <object label="%name%" placeholders="1" name="IN1" class_name="InputPort" id="vdYazuG1KC_B4ggB75WZ-80">
          <mxCell style="triangle;fontSize=14;points=[[0,0.5]];allowArrows=0;verticalAlign=middle;horizontal=1;spacingTop=0;align=right;spacingLeft=0;spacingRight=8;html=1;comic=0;treeFolding=0;treeMoving=0;resizable=0;movableLabel=1;spacing=2;aspect=fixed;fillColor=#000000;metaEdit=1;" vertex="1" parent="vdYazuG1KC_B4ggB75WZ-77">
            <mxGeometry y="48.75" width="10" height="15" as="geometry">
              <mxPoint x="-11" y="-9" as="offset" />
            </mxGeometry>
          </mxCell>
        </object>
        <mxCell id="vdYazuG1KC_B4ggB75WZ-81" style="edgeStyle=none;curved=1;rounded=0;orthogonalLoop=1;jettySize=auto;html=1;exitX=1;exitY=0.5;exitDx=0;exitDy=0;entryX=0;entryY=0.5;entryDx=0;entryDy=0;fontSize=12;startSize=8;endSize=8;" edge="1" parent="vdYazuG1KC_B4ggB75WZ-28" source="vdYazuG1KC_B4ggB75WZ-74" target="vdYazuG1KC_B4ggB75WZ-80">
          <mxGeometry relative="1" as="geometry" />
        </mxCell>
        <mxCell id="vdYazuG1KC_B4ggB75WZ-82" style="edgeStyle=none;curved=1;rounded=0;orthogonalLoop=1;jettySize=auto;html=1;exitX=1;exitY=0.5;exitDx=0;exitDy=0;entryX=0;entryY=0.5;entryDx=0;entryDy=0;fontSize=12;startSize=8;endSize=8;" edge="1" parent="vdYazuG1KC_B4ggB75WZ-28" source="vdYazuG1KC_B4ggB75WZ-78" target="vdYazuG1KC_B4ggB75WZ-62">
          <mxGeometry relative="1" as="geometry" />
        </mxCell>
        <mxCell id="2J_Oia93EONH_bVVXEkA-1" style="edgeStyle=orthogonalEdgeStyle;rounded=1;orthogonalLoop=1;jettySize=auto;html=1;exitX=1;exitY=0.5;exitDx=0;exitDy=0;entryX=0;entryY=0.5;entryDx=0;entryDy=0;fontSize=12;startSize=8;endSize=8;" edge="1" parent="vdYazuG1KC_B4ggB75WZ-28" source="vdYazuG1KC_B4ggB75WZ-61" target="vdYazuG1KC_B4ggB75WZ-51">
          <mxGeometry relative="1" as="geometry">
            <Array as="points">
              <mxPoint x="590" y="168" />
              <mxPoint x="590" y="54" />
            </Array>
          </mxGeometry>
        </mxCell>
        <object label="" placeholders="1" class_name="sint" id="2J_Oia93EONH_bVVXEkA-27">
          <mxCell style="rounded=0;whiteSpace=wrap;html=1;fillColor=#fff2cc;strokeColor=#d6b656;container=0;connectable=0;allowArrows=0;treeFolding=0;moveCells=0;treeMoving=0;comic=0;rotatable=0;expand=1;autosize=1;resizeWidth=1;resizeHeight=1;metaEdit=1;fontSize=16;" vertex="1" parent="1">
            <mxGeometry x="950" width="660" height="390" as="geometry">
              <mxRectangle x="40" y="400" width="50" height="40" as="alternateBounds" />
            </mxGeometry>
          </mxCell>
        </object>
        <object label="sint" placeholders="1" id="2J_Oia93EONH_bVVXEkA-28">
          <mxCell style="rounded=0;whiteSpace=wrap;html=1;fillColor=#ffffff;fontSize=18;connectable=0;allowArrows=0;rotatable=0;cloneable=0;deletable=0;" vertex="1" parent="2J_Oia93EONH_bVVXEkA-27">
            <mxGeometry x="10" y="21.67" width="640" height="43.33" as="geometry" />
          </mxCell>
        </object>
        <mxCell id="2J_Oia93EONH_bVVXEkA-29" value="" style="rounded=0;whiteSpace=wrap;html=1;fillColor=#ffffff;connectable=0;allowArrows=0;container=1;collapsible=0;portConstraintRotation=0;rotatable=0;cloneable=0;deletable=0;recursiveResize=0;fontSize=16;" vertex="1" parent="2J_Oia93EONH_bVVXEkA-27">
          <mxGeometry x="10" y="75.83" width="640" height="292.5" as="geometry">
            <mxRectangle x="10" y="70" width="50" height="40" as="alternateBounds" />
          </mxGeometry>
        </mxCell>
        <object label="math:&lt;br style=&quot;font-size: 14px&quot;&gt;&lt;b&gt;%block_operator%&lt;/b&gt;" placeholders="1" class_name="GenericBlock" block_name="sin" block_operator="&quot;sin&quot;" id="IWCuDGHHUp3IccVUujwR-4">
          <mxCell style="whiteSpace=wrap;html=1;aspect=fixed;comic=0;fillColor=#FFFFFF;fontSize=14;align=center;resizable=0;container=1;collapsible=0;points=[];allowArrows=0;metaEdit=1;connectable=0;" vertex="1" parent="2J_Oia93EONH_bVVXEkA-29">
            <mxGeometry x="280" y="106.25" width="80" height="80" as="geometry" />
          </mxCell>
        </object>
        <object label="%name%" placeholders="1" name="OUT1" class_name="OutputPort" id="IWCuDGHHUp3IccVUujwR-5">
          <mxCell style="triangle;fillColor=#ffffff;fontSize=14;points=[[1,0.5]];allowArrows=0;verticalAlign=middle;horizontal=1;spacingTop=0;align=left;spacingLeft=4;spacingRight=0;html=1;comic=0;treeFolding=0;treeMoving=0;movable=1;resizable=0;rotatable=1;deletable=1;editable=1;connectable=1;movableLabel=1;spacing=2;aspect=fixed;metaEdit=1;" vertex="1" parent="IWCuDGHHUp3IccVUujwR-4">
            <mxGeometry x="70" y="32.5" width="10" height="15" as="geometry">
              <mxPoint x="5" y="-7" as="offset" />
            </mxGeometry>
          </mxCell>
        </object>
        <object label="%name%" placeholders="1" name="IN1" class_name="InputPort" id="IWCuDGHHUp3IccVUujwR-6">
          <mxCell style="triangle;fontSize=14;points=[[0,0.5]];allowArrows=0;verticalAlign=middle;horizontal=1;spacingTop=0;align=right;spacingLeft=0;spacingRight=8;html=1;comic=0;treeFolding=0;treeMoving=0;resizable=0;movableLabel=1;spacing=2;aspect=fixed;fillColor=#000000;metaEdit=1;" vertex="1" parent="IWCuDGHHUp3IccVUujwR-4">
            <mxGeometry y="32.5" width="10" height="15" as="geometry">
              <mxPoint x="-13" y="-9" as="offset" />
            </mxGeometry>
          </mxCell>
        </object>
        <object label="&#x9;%symbol%" class_name="TimeBlock" block_name="clock" placeholders="1" symbol="&amp;#128336;" id="IWCuDGHHUp3IccVUujwR-7">
          <mxCell style="whiteSpace=wrap;html=1;aspect=fixed;connectable=0;allowArrows=0;container=1;collapsible=0;resizable=0;fontSize=45;metaEdit=1;" vertex="1" parent="2J_Oia93EONH_bVVXEkA-29">
            <mxGeometry x="80" y="106.25" width="80" height="80" as="geometry" />
          </mxCell>
        </object>
        <object label="%name%" placeholders="1" name="OUT1" class_name="OutputPort" id="IWCuDGHHUp3IccVUujwR-8">
          <mxCell style="triangle;fillColor=#ffffff;fontSize=14;points=[[1,0.5]];allowArrows=0;verticalAlign=middle;horizontal=1;spacingTop=0;align=left;spacingLeft=4;spacingRight=0;html=1;comic=0;treeFolding=0;treeMoving=0;movable=1;resizable=0;rotatable=1;deletable=1;editable=1;connectable=1;movableLabel=1;spacing=2;aspect=fixed;metaEdit=1;" vertex="1" parent="IWCuDGHHUp3IccVUujwR-7">
            <mxGeometry x="70" y="33" width="10" height="15" as="geometry">
              <mxPoint x="5" y="-7" as="offset" />
            </mxGeometry>
          </mxCell>
        </object>
        <mxCell id="IWCuDGHHUp3IccVUujwR-9" style="edgeStyle=none;curved=1;rounded=0;orthogonalLoop=1;jettySize=auto;html=1;exitX=1;exitY=0.5;exitDx=0;exitDy=0;entryX=0;entryY=0.5;entryDx=0;entryDy=0;fontSize=12;startSize=8;endSize=8;" edge="1" parent="2J_Oia93EONH_bVVXEkA-29" source="IWCuDGHHUp3IccVUujwR-8" target="IWCuDGHHUp3IccVUujwR-6">
          <mxGeometry relative="1" as="geometry" />
        </mxCell>
        <object label="%name%" placeholders="1" name="sinT" class_name="OutputPort" id="IWCuDGHHUp3IccVUujwR-10">
          <mxCell style="triangle;fillColor=#ffffff;fontSize=14;points=[[0,0.5],[1,0.5]];allowArrows=0;verticalAlign=middle;horizontal=1;spacingTop=0;align=left;spacingLeft=4;spacingRight=0;html=1;comic=0;treeFolding=0;treeMoving=0;movable=1;resizable=0;rotatable=1;deletable=1;editable=1;connectable=1;movableLabel=1;spacing=2;aspect=fixed;metaEdit=1;" vertex="1" parent="2J_Oia93EONH_bVVXEkA-29">
            <mxGeometry x="450" y="138.75" width="10" height="15" as="geometry">
              <mxPoint x="5" y="-7" as="offset" />
            </mxGeometry>
          </mxCell>
        </object>
        <mxCell id="IWCuDGHHUp3IccVUujwR-11" style="edgeStyle=none;curved=1;rounded=0;orthogonalLoop=1;jettySize=auto;html=1;exitX=1;exitY=0.5;exitDx=0;exitDy=0;entryX=0;entryY=0.5;entryDx=0;entryDy=0;fontSize=12;startSize=8;endSize=8;" edge="1" parent="2J_Oia93EONH_bVVXEkA-29" source="IWCuDGHHUp3IccVUujwR-5" target="IWCuDGHHUp3IccVUujwR-10">
          <mxGeometry relative="1" as="geometry" />
        </mxCell>
        <object label="%symbol%" placeholders="1" symbol="$$CBD_A$$" class_name="CBDA" block_name="cbda" id="OmQzQ7TR-dcU6T0eO_Rv-5">
          <mxCell style="whiteSpace=wrap;html=1;aspect=fixed;comic=0;fillColor=#FFFFFF;fontSize=16;align=center;resizable=0;container=1;collapsible=0;points=[];allowArrows=0;metaEdit=1;connectable=0;horizontal=1;" vertex="1" parent="1">
            <mxGeometry x="40" y="515" width="80" height="80" as="geometry" />
          </mxCell>
        </object>
        <object label="%name%" placeholders="1" name="$$x_A$$" class_name="OutputPort" id="OmQzQ7TR-dcU6T0eO_Rv-6">
          <mxCell style="triangle;fillColor=#ffffff;fontSize=14;points=[[1,0.5]];allowArrows=0;verticalAlign=middle;horizontal=1;spacingTop=0;align=left;spacingLeft=4;spacingRight=0;html=1;comic=0;treeFolding=0;treeMoving=0;movable=1;resizable=0;rotatable=1;deletable=1;editable=1;connectable=1;movableLabel=1;spacing=2;aspect=fixed;metaEdit=1;" vertex="1" parent="OmQzQ7TR-dcU6T0eO_Rv-5">
            <mxGeometry x="70" y="32.5" width="10" height="15" as="geometry">
              <mxPoint x="5" y="-7" as="offset" />
            </mxGeometry>
          </mxCell>
        </object>
        <object label="%symbol%" placeholders="1" symbol="$$CBD_B$$" class_name="CBDD" block_name="cbdd" id="OmQzQ7TR-dcU6T0eO_Rv-7">
          <mxCell style="whiteSpace=wrap;html=1;aspect=fixed;comic=0;fillColor=#FFFFFF;fontSize=16;align=center;resizable=0;container=1;collapsible=0;points=[];allowArrows=0;metaEdit=1;connectable=0;horizontal=1;" vertex="1" parent="1">
            <mxGeometry x="40" y="1085" width="80" height="80" as="geometry" />
          </mxCell>
        </object>
        <object label="%name%" placeholders="1" name="$$x_B$$" class_name="OutputPort" id="OmQzQ7TR-dcU6T0eO_Rv-8">
          <mxCell style="triangle;fillColor=#ffffff;fontSize=14;points=[[1,0.5]];allowArrows=0;verticalAlign=middle;horizontal=1;spacingTop=0;align=left;spacingLeft=4;spacingRight=0;html=1;comic=0;treeFolding=0;treeMoving=0;movable=1;resizable=0;rotatable=1;deletable=1;editable=1;connectable=1;movableLabel=1;spacing=2;aspect=fixed;metaEdit=1;" vertex="1" parent="OmQzQ7TR-dcU6T0eO_Rv-7">
            <mxGeometry x="70" y="32.5" width="10" height="15" as="geometry">
              <mxPoint x="5" y="-7" as="offset" />
            </mxGeometry>
          </mxCell>
        </object>
        <object label="%symbol%" placeholders="1" symbol="$$sin(t)$$" class_name="SinT" block_name="sint" id="OmQzQ7TR-dcU6T0eO_Rv-11">
          <mxCell style="whiteSpace=wrap;html=1;aspect=fixed;comic=0;fillColor=#FFFFFF;fontSize=16;align=center;resizable=0;container=1;collapsible=0;points=[];allowArrows=0;metaEdit=1;connectable=0;horizontal=1;" vertex="1" parent="1">
            <mxGeometry x="830" width="80" height="80" as="geometry" />
          </mxCell>
        </object>
        <object label="%name%" placeholders="1" name="OUT1" class_name="OutputPort" id="OmQzQ7TR-dcU6T0eO_Rv-12">
          <mxCell style="triangle;fillColor=#ffffff;fontSize=14;points=[[1,0.5]];allowArrows=0;verticalAlign=middle;horizontal=1;spacingTop=0;align=left;spacingLeft=4;spacingRight=0;html=1;comic=0;treeFolding=0;treeMoving=0;movable=1;resizable=0;rotatable=1;deletable=1;editable=1;connectable=1;movableLabel=1;spacing=2;aspect=fixed;metaEdit=1;" vertex="1" parent="OmQzQ7TR-dcU6T0eO_Rv-11">
            <mxGeometry x="70" y="32.5" width="10" height="15" as="geometry">
              <mxPoint x="5" y="-7" as="offset" />
            </mxGeometry>
          </mxCell>
        </object>
        <object label="" placeholders="1" class_name="ErrorA" id="ndr8MPMgsZHjieb82Wtq-4">
          <mxCell style="rounded=0;whiteSpace=wrap;html=1;fillColor=#fff2cc;strokeColor=#d6b656;container=0;connectable=0;allowArrows=0;treeFolding=0;moveCells=0;treeMoving=0;comic=0;rotatable=0;expand=1;autosize=1;resizeWidth=1;resizeHeight=1;metaEdit=1;fontSize=16;" vertex="1" parent="1">
            <mxGeometry x="873.85" y="470" width="812.31" height="480" as="geometry">
              <mxRectangle x="40" y="400" width="50" height="40" as="alternateBounds" />
            </mxGeometry>
          </mxCell>
        </object>
        <object label="ErrorA" placeholders="1" id="ndr8MPMgsZHjieb82Wtq-5">
          <mxCell style="rounded=0;whiteSpace=wrap;html=1;fillColor=#ffffff;fontSize=18;connectable=0;allowArrows=0;rotatable=0;cloneable=0;deletable=0;" vertex="1" parent="ndr8MPMgsZHjieb82Wtq-4">
            <mxGeometry x="12.307727272727274" y="26.670769230769235" width="787.6945454545455" height="53.32923076923077" as="geometry" />
          </mxCell>
        </object>
        <mxCell id="ndr8MPMgsZHjieb82Wtq-6" value="" style="rounded=0;whiteSpace=wrap;html=1;fillColor=#ffffff;connectable=0;allowArrows=0;container=1;collapsible=0;portConstraintRotation=0;rotatable=0;cloneable=0;deletable=0;recursiveResize=0;fontSize=16;" vertex="1" parent="ndr8MPMgsZHjieb82Wtq-4">
          <mxGeometry x="12.307727272727274" y="93.32923076923078" width="787.6945454545455" height="360" as="geometry">
            <mxRectangle x="10" y="70" width="50" height="40" as="alternateBounds" />
          </mxGeometry>
        </mxCell>
        <object label="%symbol%" class_name="IntegratorBlock" block_name="int" symbol="&amp;int;" placeholders="1" id="LO4prVmBuyyZOSBDe0KF-1">
          <mxCell style="shape=stencil(7ZVNDoMgEIVPw95IF24b294DFSuRggGq7e3LjzYSS6NRdybGMM7jyzi8CQCmskINBnFUAXgBcZxE+qXDzg+RbHCu3LcWCYIyil1GKsFr3JFC9QTCKiyIMll4BdFZa8zzXcA054xpGuFMepKJEMS3kHakylBe3wV/suIfbVA3yBQ60f1UD3sevDUterkf7Fvy9iJd6lIqJWxEhftgEx972qncZCvuZticcomXbbWGC/jDd2XAciNRyQWeb8qSUOoGKVjxYeTDyOuOe6eDWd/AWXM3SOeOiYUGplAvbNrdfTbzAQ==);whiteSpace=wrap;html=1;aspect=fixed;resizable=0;container=1;collapsible=0;spacingLeft=5;connectable=0;allowArrows=0;fontSize=36;spacingTop=7;metaEdit=1;" vertex="1" parent="ndr8MPMgsZHjieb82Wtq-6">
            <mxGeometry x="585.3422727272728" y="134.0007692307692" width="80" height="80" as="geometry" />
          </mxCell>
        </object>
        <object label="%name%" placeholders="1" name="OUT1" class_name="OutputPort" id="LO4prVmBuyyZOSBDe0KF-2">
          <mxCell style="triangle;fillColor=#ffffff;fontSize=14;points=[[1,0.5]];allowArrows=0;verticalAlign=middle;horizontal=1;spacingTop=0;align=left;spacingLeft=4;spacingRight=0;html=1;comic=0;treeFolding=0;treeMoving=0;movable=1;resizable=0;rotatable=1;deletable=1;editable=1;connectable=1;movableLabel=1;spacing=2;aspect=fixed;metaEdit=1;" vertex="1" parent="LO4prVmBuyyZOSBDe0KF-1">
            <mxGeometry x="70" y="32.75" width="10" height="15" as="geometry">
              <mxPoint x="5" y="-7" as="offset" />
            </mxGeometry>
          </mxCell>
        </object>
        <object label="%name%" placeholders="1" name="IC" class_name="InputPort" id="LO4prVmBuyyZOSBDe0KF-3">
          <mxCell style="triangle;fontSize=14;points=[[0,0.5]];allowArrows=0;verticalAlign=middle;horizontal=1;spacingTop=0;align=right;spacingLeft=0;spacingRight=8;html=1;comic=0;treeFolding=0;treeMoving=0;resizable=0;movableLabel=1;spacing=2;aspect=fixed;fillColor=#000000;metaEdit=1;" vertex="1" parent="LO4prVmBuyyZOSBDe0KF-1">
            <mxGeometry y="16.120000000000005" width="10" height="15" as="geometry">
              <mxPoint x="-15" y="-8" as="offset" />
            </mxGeometry>
          </mxCell>
        </object>
        <object label="%name%" placeholders="1" name="IN1" class_name="InputPort" id="LO4prVmBuyyZOSBDe0KF-4">
          <mxCell style="triangle;fontSize=14;points=[[0,0.5]];allowArrows=0;verticalAlign=middle;horizontal=1;spacingTop=0;align=right;spacingLeft=0;spacingRight=8;html=1;comic=0;treeFolding=0;treeMoving=0;resizable=0;movableLabel=1;spacing=2;aspect=fixed;fillColor=#000000;metaEdit=1;" vertex="1" parent="LO4prVmBuyyZOSBDe0KF-1">
            <mxGeometry y="48.870000000000005" width="10" height="15" as="geometry">
              <mxPoint x="-12" y="8" as="offset" />
            </mxGeometry>
          </mxCell>
        </object>
        <object label="%symbol%" placeholders="1" symbol="$$sin(t)$$" class_name="sint" block_name="sint" id="OmQzQ7TR-dcU6T0eO_Rv-13">
          <mxCell style="whiteSpace=wrap;html=1;aspect=fixed;comic=0;fillColor=#FFFFFF;fontSize=16;align=center;resizable=0;container=1;collapsible=0;points=[];allowArrows=0;metaEdit=1;connectable=0;horizontal=1;" vertex="1" parent="ndr8MPMgsZHjieb82Wtq-6">
            <mxGeometry x="41.3422727272728" y="136.0007692307692" width="80" height="80" as="geometry" />
          </mxCell>
        </object>
        <object label="%name%" placeholders="1" name="sinT" class_name="OutputPort" id="OmQzQ7TR-dcU6T0eO_Rv-14">
          <mxCell style="triangle;fillColor=#ffffff;fontSize=14;points=[[1,0.5]];allowArrows=0;verticalAlign=middle;horizontal=1;spacingTop=0;align=left;spacingLeft=4;spacingRight=0;html=1;comic=0;treeFolding=0;treeMoving=0;movable=1;resizable=0;rotatable=1;deletable=1;editable=1;connectable=1;movableLabel=1;spacing=2;aspect=fixed;metaEdit=1;" vertex="1" parent="OmQzQ7TR-dcU6T0eO_Rv-13">
            <mxGeometry x="70" y="32.5" width="10" height="15" as="geometry">
              <mxPoint x="5" y="-7" as="offset" />
            </mxGeometry>
          </mxCell>
        </object>
        <object label="%symbol%" placeholders="1" symbol="$$CBD_A$$" class_name="CBDA" block_name="cbda" id="OmQzQ7TR-dcU6T0eO_Rv-15">
          <mxCell style="whiteSpace=wrap;html=1;aspect=fixed;comic=0;fillColor=#FFFFFF;fontSize=16;align=center;resizable=0;container=1;collapsible=0;points=[];allowArrows=0;metaEdit=1;connectable=0;horizontal=1;" vertex="1" parent="ndr8MPMgsZHjieb82Wtq-6">
            <mxGeometry x="41.3422727272728" y="226.0007692307692" width="80" height="80" as="geometry" />
          </mxCell>
        </object>
        <object label="%name%" placeholders="1" name="xA" class_name="OutputPort" id="OmQzQ7TR-dcU6T0eO_Rv-16">
          <mxCell style="triangle;fillColor=#ffffff;fontSize=14;points=[[1,0.5]];allowArrows=0;verticalAlign=middle;horizontal=1;spacingTop=0;align=left;spacingLeft=4;spacingRight=0;html=1;comic=0;treeFolding=0;treeMoving=0;movable=1;resizable=0;rotatable=1;deletable=1;editable=1;connectable=1;movableLabel=1;spacing=2;aspect=fixed;metaEdit=1;" vertex="1" parent="OmQzQ7TR-dcU6T0eO_Rv-15">
            <mxGeometry x="70" y="32.5" width="10" height="15" as="geometry">
              <mxPoint x="5" y="-10" as="offset" />
            </mxGeometry>
          </mxCell>
        </object>
        <object label="%name%" placeholders="1" name="et" class_name="OutputPort" id="OmQzQ7TR-dcU6T0eO_Rv-21">
          <mxCell style="triangle;fillColor=#ffffff;fontSize=14;points=[[0,0.5],[1,0.5]];allowArrows=0;verticalAlign=middle;horizontal=1;spacingTop=0;align=left;spacingLeft=4;spacingRight=0;html=1;comic=0;treeFolding=0;treeMoving=0;movable=1;resizable=0;rotatable=1;deletable=1;editable=1;connectable=1;movableLabel=1;spacing=2;aspect=fixed;metaEdit=1;" vertex="1" parent="ndr8MPMgsZHjieb82Wtq-6">
            <mxGeometry x="736.3422727272728" y="166.7507692307692" width="10" height="15" as="geometry">
              <mxPoint x="5" y="-7" as="offset" />
            </mxGeometry>
          </mxCell>
        </object>
        <mxCell id="OmQzQ7TR-dcU6T0eO_Rv-22" style="edgeStyle=none;curved=1;rounded=0;orthogonalLoop=1;jettySize=auto;html=1;exitX=1;exitY=0.5;exitDx=0;exitDy=0;entryX=0;entryY=0.5;entryDx=0;entryDy=0;fontSize=12;startSize=8;endSize=8;" edge="1" parent="ndr8MPMgsZHjieb82Wtq-6" source="LO4prVmBuyyZOSBDe0KF-2" target="OmQzQ7TR-dcU6T0eO_Rv-21">
          <mxGeometry relative="1" as="geometry" />
        </mxCell>
        <object label="%symbol%" placeholders="1" symbol="|x|" class_name="AbsBlock" block_name="abs" id="NPDaFILPbAd2pg6ewJH5-1">
          <mxCell style="whiteSpace=wrap;html=1;aspect=fixed;comic=0;fillColor=#FFFFFF;fontSize=36;align=center;resizable=0;container=1;collapsible=0;points=[];allowArrows=0;spacingTop=-6;metaEdit=1;connectable=0;" vertex="1" parent="ndr8MPMgsZHjieb82Wtq-6">
            <mxGeometry x="426.3422727272728" y="151.0007692307692" width="80" height="80" as="geometry" />
          </mxCell>
        </object>
        <object label="%name%" placeholders="1" name="OUT1" class_name="OutputPort" id="NPDaFILPbAd2pg6ewJH5-2">
          <mxCell style="triangle;fillColor=#ffffff;fontSize=14;points=[[1,0.5]];allowArrows=0;verticalAlign=middle;horizontal=1;spacingTop=0;align=left;spacingLeft=4;spacingRight=0;html=1;comic=0;treeFolding=0;treeMoving=0;movable=1;resizable=0;rotatable=1;deletable=1;editable=1;connectable=1;movableLabel=1;spacing=2;aspect=fixed;metaEdit=1;" vertex="1" parent="NPDaFILPbAd2pg6ewJH5-1">
            <mxGeometry x="70" y="32.5" width="10" height="15" as="geometry">
              <mxPoint x="5" y="-7" as="offset" />
            </mxGeometry>
          </mxCell>
        </object>
        <object label="%name%" placeholders="1" name="IN1" class_name="InputPort" id="NPDaFILPbAd2pg6ewJH5-3">
          <mxCell style="triangle;fontSize=14;points=[[0,0.5]];allowArrows=0;verticalAlign=middle;horizontal=1;spacingTop=0;align=right;spacingLeft=0;spacingRight=8;html=1;comic=0;treeFolding=0;treeMoving=0;resizable=0;movableLabel=1;spacing=2;aspect=fixed;fillColor=#000000;metaEdit=1;" vertex="1" parent="NPDaFILPbAd2pg6ewJH5-1">
            <mxGeometry y="32.5" width="10" height="15" as="geometry">
              <mxPoint x="-13" y="8" as="offset" />
            </mxGeometry>
          </mxCell>
        </object>
        <object label="%symbol%" placeholders="1" symbol="-" class_name="NegatorBlock" block_name="neg" id="gHbqqI7lVmAYVAP9RJRd-1">
          <mxCell style="triangle;whiteSpace=wrap;html=1;comic=0;fontSize=36;align=center;allowArrows=0;recursiveResize=0;resizable=0;fillColor=#FFFFFF;points=[];spacingLeft=-5;container=1;collapsible=0;spacingTop=-6;metaEdit=1;connectable=0;" vertex="1" parent="ndr8MPMgsZHjieb82Wtq-6">
            <mxGeometry x="193.8422727272728" y="226.0007692307692" width="60" height="80" as="geometry" />
          </mxCell>
        </object>
        <object label="%name%" placeholders="1" name="OUT1" class_name="OutputPort" id="gHbqqI7lVmAYVAP9RJRd-2">
          <mxCell style="triangle;fillColor=#ffffff;fontSize=14;points=[[1,0.5]];allowArrows=0;verticalAlign=middle;horizontal=1;spacingTop=0;align=left;spacingLeft=4;spacingRight=0;html=1;comic=0;treeFolding=0;treeMoving=0;movable=1;resizable=0;rotatable=1;deletable=1;editable=1;connectable=1;movableLabel=1;spacing=2;aspect=fixed;metaEdit=1;" vertex="1" parent="gHbqqI7lVmAYVAP9RJRd-1">
            <mxGeometry x="50" y="32.5" width="10" height="15" as="geometry">
              <mxPoint x="3" y="8" as="offset" />
            </mxGeometry>
          </mxCell>
        </object>
        <object label="%name%" placeholders="1" name="IN1" class_name="InputPort" id="gHbqqI7lVmAYVAP9RJRd-3">
          <mxCell style="triangle;fontSize=14;points=[[0,0.5]];allowArrows=0;verticalAlign=middle;horizontal=1;spacingTop=0;align=right;spacingLeft=0;spacingRight=8;html=1;comic=0;treeFolding=0;treeMoving=0;resizable=0;movableLabel=1;spacing=2;aspect=fixed;fillColor=#000000;metaEdit=1;" vertex="1" parent="gHbqqI7lVmAYVAP9RJRd-1">
            <mxGeometry y="32.5" width="10" height="15" as="geometry">
              <mxPoint x="-10" y="8" as="offset" />
            </mxGeometry>
          </mxCell>
        </object>
        <object label="%symbol%" placeholders="1" symbol="&amp;sum;" class_name="AdderBlock" block_name="add" numberOfInputs="2" id="gHbqqI7lVmAYVAP9RJRd-4">
          <mxCell style="whiteSpace=wrap;html=1;aspect=fixed;comic=0;fillColor=#FFFFFF;fontSize=36;align=center;resizable=0;container=1;collapsible=0;points=[];allowArrows=0;spacingTop=-6;metaEdit=1;connectable=0;" vertex="1" parent="ndr8MPMgsZHjieb82Wtq-6">
            <mxGeometry x="278.3422727272728" y="151.0007692307692" width="80" height="80" as="geometry" />
          </mxCell>
        </object>
        <object label="%name%" placeholders="1" name="OUT1" class_name="OutputPort" id="gHbqqI7lVmAYVAP9RJRd-5">
          <mxCell style="triangle;fillColor=#ffffff;fontSize=14;points=[[1,0.5]];allowArrows=0;verticalAlign=middle;horizontal=1;spacingTop=0;align=left;spacingLeft=4;spacingRight=0;html=1;comic=0;treeFolding=0;treeMoving=0;movable=1;resizable=0;rotatable=1;deletable=1;editable=1;connectable=1;movableLabel=1;spacing=2;aspect=fixed;metaEdit=1;" vertex="1" parent="gHbqqI7lVmAYVAP9RJRd-4">
            <mxGeometry x="70" y="32.5" width="10" height="15" as="geometry">
              <mxPoint x="5" y="-7" as="offset" />
            </mxGeometry>
          </mxCell>
        </object>
        <object label="%name%" placeholders="1" name="IN1" class_name="InputPort" id="gHbqqI7lVmAYVAP9RJRd-6">
          <mxCell style="triangle;fontSize=14;points=[[0,0.5]];allowArrows=0;verticalAlign=middle;horizontal=1;spacingTop=0;align=right;spacingLeft=0;spacingRight=8;html=1;comic=0;treeFolding=0;treeMoving=0;resizable=0;movableLabel=1;spacing=2;aspect=fixed;fillColor=#000000;metaEdit=1;" vertex="1" parent="gHbqqI7lVmAYVAP9RJRd-4">
            <mxGeometry y="17.5" width="10" height="15" as="geometry">
              <mxPoint x="-15" y="-7" as="offset" />
            </mxGeometry>
          </mxCell>
        </object>
        <object label="%name%" placeholders="1" name="IN2" class_name="InputPort" id="gHbqqI7lVmAYVAP9RJRd-7">
          <mxCell style="triangle;fontSize=14;points=[[0,0.5]];allowArrows=0;verticalAlign=middle;horizontal=1;spacingTop=0;align=right;spacingLeft=0;spacingRight=8;html=1;comic=0;treeFolding=0;treeMoving=0;resizable=0;movableLabel=1;spacing=2;aspect=fixed;fillColor=#000000;metaEdit=1;" vertex="1" parent="gHbqqI7lVmAYVAP9RJRd-4">
            <mxGeometry y="47.5" width="10" height="15" as="geometry">
              <mxPoint x="-15" y="-7" as="offset" />
            </mxGeometry>
          </mxCell>
        </object>
        <mxCell id="gHbqqI7lVmAYVAP9RJRd-9" style="edgeStyle=none;curved=1;rounded=0;orthogonalLoop=1;jettySize=auto;html=1;exitX=1;exitY=0.5;exitDx=0;exitDy=0;fontSize=12;startSize=8;endSize=8;" edge="1" parent="ndr8MPMgsZHjieb82Wtq-6" source="NPDaFILPbAd2pg6ewJH5-2" target="LO4prVmBuyyZOSBDe0KF-4">
          <mxGeometry relative="1" as="geometry" />
        </mxCell>
        <mxCell id="gHbqqI7lVmAYVAP9RJRd-11" style="edgeStyle=none;curved=1;rounded=0;orthogonalLoop=1;jettySize=auto;html=1;exitX=1;exitY=0.5;exitDx=0;exitDy=0;entryX=0;entryY=0.5;entryDx=0;entryDy=0;fontSize=12;startSize=8;endSize=8;" edge="1" parent="ndr8MPMgsZHjieb82Wtq-6" source="OmQzQ7TR-dcU6T0eO_Rv-16" target="gHbqqI7lVmAYVAP9RJRd-3">
          <mxGeometry relative="1" as="geometry" />
        </mxCell>
        <mxCell id="gHbqqI7lVmAYVAP9RJRd-14" style="edgeStyle=none;curved=1;rounded=0;orthogonalLoop=1;jettySize=auto;html=1;exitX=1;exitY=0.5;exitDx=0;exitDy=0;entryX=0;entryY=0.5;entryDx=0;entryDy=0;fontSize=12;startSize=8;endSize=8;" edge="1" parent="ndr8MPMgsZHjieb82Wtq-6" source="OmQzQ7TR-dcU6T0eO_Rv-14" target="gHbqqI7lVmAYVAP9RJRd-6">
          <mxGeometry relative="1" as="geometry" />
        </mxCell>
        <mxCell id="gHbqqI7lVmAYVAP9RJRd-15" style="edgeStyle=none;curved=1;rounded=0;orthogonalLoop=1;jettySize=auto;html=1;exitX=1;exitY=0.5;exitDx=0;exitDy=0;entryX=0;entryY=0.5;entryDx=0;entryDy=0;fontSize=12;startSize=8;endSize=8;" edge="1" parent="ndr8MPMgsZHjieb82Wtq-6" source="gHbqqI7lVmAYVAP9RJRd-5" target="NPDaFILPbAd2pg6ewJH5-3">
          <mxGeometry relative="1" as="geometry" />
        </mxCell>
        <mxCell id="gHbqqI7lVmAYVAP9RJRd-16" style="edgeStyle=orthogonalEdgeStyle;rounded=1;orthogonalLoop=1;jettySize=auto;html=1;exitX=1;exitY=0.5;exitDx=0;exitDy=0;entryX=0;entryY=0.5;entryDx=0;entryDy=0;fontSize=12;startSize=8;endSize=8;" edge="1" parent="ndr8MPMgsZHjieb82Wtq-6" source="gHbqqI7lVmAYVAP9RJRd-2" target="gHbqqI7lVmAYVAP9RJRd-7">
          <mxGeometry relative="1" as="geometry">
            <Array as="points">
              <mxPoint x="264" y="266" />
              <mxPoint x="264" y="206" />
            </Array>
          </mxGeometry>
        </mxCell>
        <object label="%value%" placeholders="1" value="0" block_name="zeroCt" class_name="ConstantBlock" id="gHbqqI7lVmAYVAP9RJRd-17">
          <mxCell style="ellipse;whiteSpace=wrap;html=1;comic=0;fillColor=#ffffff;fontSize=24;align=center;allowArrows=0;connectable=0;container=1;collapsible=0;recursiveResize=1;direction=west;resizable=0;metaEdit=1;" vertex="1" parent="ndr8MPMgsZHjieb82Wtq-6">
            <mxGeometry x="426.3422727272728" y="54.00076923076922" width="80" height="80" as="geometry" />
          </mxCell>
        </object>
        <object label="%name%" placeholders="1" name="OUT1" class_name="OutputPort" id="gHbqqI7lVmAYVAP9RJRd-18">
          <mxCell style="triangle;fillColor=#ffffff;fontSize=14;points=[[1,0.5]];allowArrows=0;verticalAlign=middle;horizontal=1;spacingTop=0;align=left;spacingLeft=4;spacingRight=0;html=1;comic=0;treeFolding=0;treeMoving=0;movable=1;resizable=0;rotatable=1;deletable=1;editable=1;connectable=1;movableLabel=1;spacing=2;aspect=fixed;metaEdit=1;" vertex="1" parent="gHbqqI7lVmAYVAP9RJRd-17">
            <mxGeometry x="70" y="32.5" width="10" height="15" as="geometry">
              <mxPoint x="6" y="-7" as="offset" />
            </mxGeometry>
          </mxCell>
        </object>
        <mxCell id="gHbqqI7lVmAYVAP9RJRd-19" style="edgeStyle=orthogonalEdgeStyle;rounded=1;orthogonalLoop=1;jettySize=auto;html=1;exitX=1;exitY=0.5;exitDx=0;exitDy=0;entryX=0;entryY=0.5;entryDx=0;entryDy=0;fontSize=12;startSize=8;endSize=8;" edge="1" parent="ndr8MPMgsZHjieb82Wtq-6" source="gHbqqI7lVmAYVAP9RJRd-18" target="LO4prVmBuyyZOSBDe0KF-3">
          <mxGeometry relative="1" as="geometry" />
        </mxCell>
        <object label="%name%" placeholders="1" name="xt" class_name="OutputPort" id="7oEzEHlFAZYDXKyeZvMJ-1">
          <mxCell style="triangle;fillColor=#ffffff;fontSize=14;points=[[0,0.5],[1,0.5]];allowArrows=0;verticalAlign=middle;horizontal=1;spacingTop=0;align=left;spacingLeft=4;spacingRight=0;html=1;comic=0;treeFolding=0;treeMoving=0;movable=1;resizable=0;rotatable=1;deletable=1;editable=1;connectable=1;movableLabel=1;spacing=2;aspect=fixed;metaEdit=1;" vertex="1" parent="ndr8MPMgsZHjieb82Wtq-6">
            <mxGeometry x="193.84227272727276" y="316.6707692307691" width="10" height="15" as="geometry">
              <mxPoint x="5" y="-7" as="offset" />
            </mxGeometry>
          </mxCell>
        </object>
        <mxCell id="7oEzEHlFAZYDXKyeZvMJ-2" style="edgeStyle=orthogonalEdgeStyle;rounded=1;orthogonalLoop=1;jettySize=auto;html=1;exitX=1;exitY=0.5;exitDx=0;exitDy=0;entryX=0;entryY=0.5;entryDx=0;entryDy=0;fontSize=12;startSize=8;endSize=8;" edge="1" parent="ndr8MPMgsZHjieb82Wtq-6" source="OmQzQ7TR-dcU6T0eO_Rv-16" target="7oEzEHlFAZYDXKyeZvMJ-1">
          <mxGeometry relative="1" as="geometry" />
        </mxCell>
        <object label="%name%" placeholders="1" name="sinT" class_name="OutputPort" id="7oEzEHlFAZYDXKyeZvMJ-3">
          <mxCell style="triangle;fillColor=#ffffff;fontSize=14;points=[[0,0.5],[1,0.5]];allowArrows=0;verticalAlign=middle;horizontal=1;spacingTop=0;align=left;spacingLeft=4;spacingRight=0;html=1;comic=0;treeFolding=0;treeMoving=0;movable=1;resizable=0;rotatable=1;deletable=1;editable=1;connectable=1;movableLabel=1;spacing=2;aspect=fixed;metaEdit=1;" vertex="1" parent="ndr8MPMgsZHjieb82Wtq-6">
            <mxGeometry x="193.84227272727276" y="201.00076923076915" width="10" height="15" as="geometry">
              <mxPoint x="5" y="-7" as="offset" />
            </mxGeometry>
          </mxCell>
        </object>
        <mxCell id="7oEzEHlFAZYDXKyeZvMJ-4" style="edgeStyle=orthogonalEdgeStyle;rounded=1;orthogonalLoop=1;jettySize=auto;html=1;exitX=1;exitY=0.5;exitDx=0;exitDy=0;entryX=0;entryY=0.5;entryDx=0;entryDy=0;fontSize=12;startSize=8;endSize=8;" edge="1" parent="ndr8MPMgsZHjieb82Wtq-6" source="OmQzQ7TR-dcU6T0eO_Rv-14" target="7oEzEHlFAZYDXKyeZvMJ-3">
          <mxGeometry relative="1" as="geometry" />
        </mxCell>
        <object label="" placeholders="1" class_name="ErrorB" id="ndr8MPMgsZHjieb82Wtq-60">
          <mxCell style="rounded=0;whiteSpace=wrap;html=1;fillColor=#fff2cc;strokeColor=#d6b656;container=0;connectable=0;allowArrows=0;treeFolding=0;moveCells=0;treeMoving=0;comic=0;rotatable=0;expand=1;autosize=1;resizeWidth=1;resizeHeight=1;metaEdit=1;fontSize=16;" vertex="1" parent="1">
            <mxGeometry x="873.85" y="1040" width="812.31" height="480" as="geometry">
              <mxRectangle x="40" y="400" width="50" height="40" as="alternateBounds" />
            </mxGeometry>
          </mxCell>
        </object>
        <object label="ErrorB" placeholders="1" id="ndr8MPMgsZHjieb82Wtq-61">
          <mxCell style="rounded=0;whiteSpace=wrap;html=1;fillColor=#ffffff;fontSize=18;connectable=0;allowArrows=0;rotatable=0;cloneable=0;deletable=0;" vertex="1" parent="ndr8MPMgsZHjieb82Wtq-60">
            <mxGeometry x="12.307727272727274" y="26.670769230769235" width="787.6945454545455" height="53.32923076923077" as="geometry" />
          </mxCell>
        </object>
        <mxCell id="ndr8MPMgsZHjieb82Wtq-62" value="" style="rounded=0;whiteSpace=wrap;html=1;fillColor=#ffffff;connectable=0;allowArrows=0;container=1;collapsible=0;portConstraintRotation=0;rotatable=0;cloneable=0;deletable=0;recursiveResize=0;fontSize=16;" vertex="1" parent="ndr8MPMgsZHjieb82Wtq-60">
          <mxGeometry x="12.307727272727274" y="93.32923076923078" width="787.6945454545455" height="360" as="geometry">
            <mxRectangle x="10" y="70" width="50" height="40" as="alternateBounds" />
          </mxGeometry>
        </mxCell>
        <object label="%symbol%" class_name="IntegratorBlock" block_name="int" symbol="&amp;int;" placeholders="1" id="ndr8MPMgsZHjieb82Wtq-63">
          <mxCell style="shape=stencil(7ZVNDoMgEIVPw95IF24b294DFSuRggGq7e3LjzYSS6NRdybGMM7jyzi8CQCmskINBnFUAXgBcZxE+qXDzg+RbHCu3LcWCYIyil1GKsFr3JFC9QTCKiyIMll4BdFZa8zzXcA054xpGuFMepKJEMS3kHakylBe3wV/suIfbVA3yBQ60f1UD3sevDUterkf7Fvy9iJd6lIqJWxEhftgEx972qncZCvuZticcomXbbWGC/jDd2XAciNRyQWeb8qSUOoGKVjxYeTDyOuOe6eDWd/AWXM3SOeOiYUGplAvbNrdfTbzAQ==);whiteSpace=wrap;html=1;aspect=fixed;resizable=0;container=1;collapsible=0;spacingLeft=5;connectable=0;allowArrows=0;fontSize=36;spacingTop=7;metaEdit=1;" vertex="1" parent="ndr8MPMgsZHjieb82Wtq-62">
            <mxGeometry x="585.3422727272728" y="134.0007692307692" width="80" height="80" as="geometry" />
          </mxCell>
        </object>
        <object label="%name%" placeholders="1" name="OUT1" class_name="OutputPort" id="ndr8MPMgsZHjieb82Wtq-64">
          <mxCell style="triangle;fillColor=#ffffff;fontSize=14;points=[[1,0.5]];allowArrows=0;verticalAlign=middle;horizontal=1;spacingTop=0;align=left;spacingLeft=4;spacingRight=0;html=1;comic=0;treeFolding=0;treeMoving=0;movable=1;resizable=0;rotatable=1;deletable=1;editable=1;connectable=1;movableLabel=1;spacing=2;aspect=fixed;metaEdit=1;" vertex="1" parent="ndr8MPMgsZHjieb82Wtq-63">
            <mxGeometry x="70" y="32.75" width="10" height="15" as="geometry">
              <mxPoint x="5" y="-7" as="offset" />
            </mxGeometry>
          </mxCell>
        </object>
        <object label="%name%" placeholders="1" name="IC" class_name="InputPort" id="ndr8MPMgsZHjieb82Wtq-65">
          <mxCell style="triangle;fontSize=14;points=[[0,0.5]];allowArrows=0;verticalAlign=middle;horizontal=1;spacingTop=0;align=right;spacingLeft=0;spacingRight=8;html=1;comic=0;treeFolding=0;treeMoving=0;resizable=0;movableLabel=1;spacing=2;aspect=fixed;fillColor=#000000;metaEdit=1;" vertex="1" parent="ndr8MPMgsZHjieb82Wtq-63">
            <mxGeometry y="16.120000000000005" width="10" height="15" as="geometry">
              <mxPoint x="-15" y="-8" as="offset" />
            </mxGeometry>
          </mxCell>
        </object>
        <object label="%name%" placeholders="1" name="IN1" class_name="InputPort" id="ndr8MPMgsZHjieb82Wtq-66">
          <mxCell style="triangle;fontSize=14;points=[[0,0.5]];allowArrows=0;verticalAlign=middle;horizontal=1;spacingTop=0;align=right;spacingLeft=0;spacingRight=8;html=1;comic=0;treeFolding=0;treeMoving=0;resizable=0;movableLabel=1;spacing=2;aspect=fixed;fillColor=#000000;metaEdit=1;" vertex="1" parent="ndr8MPMgsZHjieb82Wtq-63">
            <mxGeometry y="48.870000000000005" width="10" height="15" as="geometry">
              <mxPoint x="-12" y="8" as="offset" />
            </mxGeometry>
          </mxCell>
        </object>
        <object label="%symbol%" placeholders="1" symbol="$$sin(t)$$" class_name="sint" block_name="sint" id="ndr8MPMgsZHjieb82Wtq-67">
          <mxCell style="whiteSpace=wrap;html=1;aspect=fixed;comic=0;fillColor=#FFFFFF;fontSize=16;align=center;resizable=0;container=1;collapsible=0;points=[];allowArrows=0;metaEdit=1;connectable=0;horizontal=1;" vertex="1" parent="ndr8MPMgsZHjieb82Wtq-62">
            <mxGeometry x="41.3422727272728" y="136.0007692307692" width="80" height="80" as="geometry" />
          </mxCell>
        </object>
        <object label="%name%" placeholders="1" name="sinT" class_name="OutputPort" id="ndr8MPMgsZHjieb82Wtq-68">
          <mxCell style="triangle;fillColor=#ffffff;fontSize=14;points=[[1,0.5]];allowArrows=0;verticalAlign=middle;horizontal=1;spacingTop=0;align=left;spacingLeft=4;spacingRight=0;html=1;comic=0;treeFolding=0;treeMoving=0;movable=1;resizable=0;rotatable=1;deletable=1;editable=1;connectable=1;movableLabel=1;spacing=2;aspect=fixed;metaEdit=1;" vertex="1" parent="ndr8MPMgsZHjieb82Wtq-67">
            <mxGeometry x="70" y="32.5" width="10" height="15" as="geometry">
              <mxPoint x="5" y="-7" as="offset" />
            </mxGeometry>
          </mxCell>
        </object>
        <object label="%symbol%" placeholders="1" symbol="$$CBD_B$$" class_name="CBDB" block_name="cbdb" id="ndr8MPMgsZHjieb82Wtq-69">
          <mxCell style="whiteSpace=wrap;html=1;aspect=fixed;comic=0;fillColor=#FFFFFF;fontSize=16;align=center;resizable=0;container=1;collapsible=0;points=[];allowArrows=0;metaEdit=1;connectable=0;horizontal=1;" vertex="1" parent="ndr8MPMgsZHjieb82Wtq-62">
            <mxGeometry x="41.3422727272728" y="226.0007692307692" width="80" height="80" as="geometry" />
          </mxCell>
        </object>
        <object label="%name%" placeholders="1" name="xB" class_name="OutputPort" id="ndr8MPMgsZHjieb82Wtq-70">
          <mxCell style="triangle;fillColor=#ffffff;fontSize=14;points=[[1,0.5]];allowArrows=0;verticalAlign=middle;horizontal=1;spacingTop=0;align=left;spacingLeft=4;spacingRight=0;html=1;comic=0;treeFolding=0;treeMoving=0;movable=1;resizable=0;rotatable=1;deletable=1;editable=1;connectable=1;movableLabel=1;spacing=2;aspect=fixed;metaEdit=1;" vertex="1" parent="ndr8MPMgsZHjieb82Wtq-69">
            <mxGeometry x="70" y="32.5" width="10" height="15" as="geometry">
              <mxPoint x="5" y="-10" as="offset" />
            </mxGeometry>
          </mxCell>
        </object>
        <object label="%name%" placeholders="1" name="et" class_name="OutputPort" id="ndr8MPMgsZHjieb82Wtq-71">
          <mxCell style="triangle;fillColor=#ffffff;fontSize=14;points=[[0,0.5],[1,0.5]];allowArrows=0;verticalAlign=middle;horizontal=1;spacingTop=0;align=left;spacingLeft=4;spacingRight=0;html=1;comic=0;treeFolding=0;treeMoving=0;movable=1;resizable=0;rotatable=1;deletable=1;editable=1;connectable=1;movableLabel=1;spacing=2;aspect=fixed;metaEdit=1;" vertex="1" parent="ndr8MPMgsZHjieb82Wtq-62">
            <mxGeometry x="736.3422727272728" y="166.7507692307692" width="10" height="15" as="geometry">
              <mxPoint x="5" y="-7" as="offset" />
            </mxGeometry>
          </mxCell>
        </object>
        <mxCell id="ndr8MPMgsZHjieb82Wtq-72" style="edgeStyle=none;curved=1;rounded=0;orthogonalLoop=1;jettySize=auto;html=1;exitX=1;exitY=0.5;exitDx=0;exitDy=0;entryX=0;entryY=0.5;entryDx=0;entryDy=0;fontSize=12;startSize=8;endSize=8;" edge="1" parent="ndr8MPMgsZHjieb82Wtq-62" source="ndr8MPMgsZHjieb82Wtq-64" target="ndr8MPMgsZHjieb82Wtq-71">
          <mxGeometry relative="1" as="geometry" />
        </mxCell>
        <object label="%symbol%" placeholders="1" symbol="|x|" class_name="AbsBlock" block_name="abs" id="ndr8MPMgsZHjieb82Wtq-73">
          <mxCell style="whiteSpace=wrap;html=1;aspect=fixed;comic=0;fillColor=#FFFFFF;fontSize=36;align=center;resizable=0;container=1;collapsible=0;points=[];allowArrows=0;spacingTop=-6;metaEdit=1;connectable=0;" vertex="1" parent="ndr8MPMgsZHjieb82Wtq-62">
            <mxGeometry x="426.3422727272728" y="151.0007692307692" width="80" height="80" as="geometry" />
          </mxCell>
        </object>
        <object label="%name%" placeholders="1" name="OUT1" class_name="OutputPort" id="ndr8MPMgsZHjieb82Wtq-74">
          <mxCell style="triangle;fillColor=#ffffff;fontSize=14;points=[[1,0.5]];allowArrows=0;verticalAlign=middle;horizontal=1;spacingTop=0;align=left;spacingLeft=4;spacingRight=0;html=1;comic=0;treeFolding=0;treeMoving=0;movable=1;resizable=0;rotatable=1;deletable=1;editable=1;connectable=1;movableLabel=1;spacing=2;aspect=fixed;metaEdit=1;" vertex="1" parent="ndr8MPMgsZHjieb82Wtq-73">
            <mxGeometry x="70" y="32.5" width="10" height="15" as="geometry">
              <mxPoint x="5" y="-7" as="offset" />
            </mxGeometry>
          </mxCell>
        </object>
        <object label="%name%" placeholders="1" name="IN1" class_name="InputPort" id="ndr8MPMgsZHjieb82Wtq-75">
          <mxCell style="triangle;fontSize=14;points=[[0,0.5]];allowArrows=0;verticalAlign=middle;horizontal=1;spacingTop=0;align=right;spacingLeft=0;spacingRight=8;html=1;comic=0;treeFolding=0;treeMoving=0;resizable=0;movableLabel=1;spacing=2;aspect=fixed;fillColor=#000000;metaEdit=1;" vertex="1" parent="ndr8MPMgsZHjieb82Wtq-73">
            <mxGeometry y="32.5" width="10" height="15" as="geometry">
              <mxPoint x="-13" y="8" as="offset" />
            </mxGeometry>
          </mxCell>
        </object>
        <object label="%symbol%" placeholders="1" symbol="-" class_name="NegatorBlock" block_name="neg" id="ndr8MPMgsZHjieb82Wtq-76">
          <mxCell style="triangle;whiteSpace=wrap;html=1;comic=0;fontSize=36;align=center;allowArrows=0;recursiveResize=0;resizable=0;fillColor=#FFFFFF;points=[];spacingLeft=-5;container=1;collapsible=0;spacingTop=-6;metaEdit=1;connectable=0;" vertex="1" parent="ndr8MPMgsZHjieb82Wtq-62">
            <mxGeometry x="193.8422727272728" y="226.0007692307692" width="60" height="80" as="geometry" />
          </mxCell>
        </object>
        <object label="%name%" placeholders="1" name="OUT1" class_name="OutputPort" id="ndr8MPMgsZHjieb82Wtq-77">
          <mxCell style="triangle;fillColor=#ffffff;fontSize=14;points=[[1,0.5]];allowArrows=0;verticalAlign=middle;horizontal=1;spacingTop=0;align=left;spacingLeft=4;spacingRight=0;html=1;comic=0;treeFolding=0;treeMoving=0;movable=1;resizable=0;rotatable=1;deletable=1;editable=1;connectable=1;movableLabel=1;spacing=2;aspect=fixed;metaEdit=1;" vertex="1" parent="ndr8MPMgsZHjieb82Wtq-76">
            <mxGeometry x="50" y="32.5" width="10" height="15" as="geometry">
              <mxPoint x="3" y="8" as="offset" />
            </mxGeometry>
          </mxCell>
        </object>
        <object label="%name%" placeholders="1" name="IN1" class_name="InputPort" id="ndr8MPMgsZHjieb82Wtq-78">
          <mxCell style="triangle;fontSize=14;points=[[0,0.5]];allowArrows=0;verticalAlign=middle;horizontal=1;spacingTop=0;align=right;spacingLeft=0;spacingRight=8;html=1;comic=0;treeFolding=0;treeMoving=0;resizable=0;movableLabel=1;spacing=2;aspect=fixed;fillColor=#000000;metaEdit=1;" vertex="1" parent="ndr8MPMgsZHjieb82Wtq-76">
            <mxGeometry y="32.5" width="10" height="15" as="geometry">
              <mxPoint x="-10" y="8" as="offset" />
            </mxGeometry>
          </mxCell>
        </object>
        <object label="%symbol%" placeholders="1" symbol="&amp;sum;" class_name="AdderBlock" block_name="add" numberOfInputs="2" id="ndr8MPMgsZHjieb82Wtq-79">
          <mxCell style="whiteSpace=wrap;html=1;aspect=fixed;comic=0;fillColor=#FFFFFF;fontSize=36;align=center;resizable=0;container=1;collapsible=0;points=[];allowArrows=0;spacingTop=-6;metaEdit=1;connectable=0;" vertex="1" parent="ndr8MPMgsZHjieb82Wtq-62">
            <mxGeometry x="278.3422727272728" y="151.0007692307692" width="80" height="80" as="geometry" />
          </mxCell>
        </object>
        <object label="%name%" placeholders="1" name="OUT1" class_name="OutputPort" id="ndr8MPMgsZHjieb82Wtq-80">
          <mxCell style="triangle;fillColor=#ffffff;fontSize=14;points=[[1,0.5]];allowArrows=0;verticalAlign=middle;horizontal=1;spacingTop=0;align=left;spacingLeft=4;spacingRight=0;html=1;comic=0;treeFolding=0;treeMoving=0;movable=1;resizable=0;rotatable=1;deletable=1;editable=1;connectable=1;movableLabel=1;spacing=2;aspect=fixed;metaEdit=1;" vertex="1" parent="ndr8MPMgsZHjieb82Wtq-79">
            <mxGeometry x="70" y="32.5" width="10" height="15" as="geometry">
              <mxPoint x="5" y="-7" as="offset" />
            </mxGeometry>
          </mxCell>
        </object>
        <object label="%name%" placeholders="1" name="IN1" class_name="InputPort" id="ndr8MPMgsZHjieb82Wtq-81">
          <mxCell style="triangle;fontSize=14;points=[[0,0.5]];allowArrows=0;verticalAlign=middle;horizontal=1;spacingTop=0;align=right;spacingLeft=0;spacingRight=8;html=1;comic=0;treeFolding=0;treeMoving=0;resizable=0;movableLabel=1;spacing=2;aspect=fixed;fillColor=#000000;metaEdit=1;" vertex="1" parent="ndr8MPMgsZHjieb82Wtq-79">
            <mxGeometry y="17.5" width="10" height="15" as="geometry">
              <mxPoint x="-15" y="-7" as="offset" />
            </mxGeometry>
          </mxCell>
        </object>
        <object label="%name%" placeholders="1" name="IN2" class_name="InputPort" id="ndr8MPMgsZHjieb82Wtq-82">
          <mxCell style="triangle;fontSize=14;points=[[0,0.5]];allowArrows=0;verticalAlign=middle;horizontal=1;spacingTop=0;align=right;spacingLeft=0;spacingRight=8;html=1;comic=0;treeFolding=0;treeMoving=0;resizable=0;movableLabel=1;spacing=2;aspect=fixed;fillColor=#000000;metaEdit=1;" vertex="1" parent="ndr8MPMgsZHjieb82Wtq-79">
            <mxGeometry y="47.5" width="10" height="15" as="geometry">
              <mxPoint x="-15" y="-7" as="offset" />
            </mxGeometry>
          </mxCell>
        </object>
        <mxCell id="ndr8MPMgsZHjieb82Wtq-83" style="edgeStyle=none;curved=1;rounded=0;orthogonalLoop=1;jettySize=auto;html=1;exitX=1;exitY=0.5;exitDx=0;exitDy=0;fontSize=12;startSize=8;endSize=8;" edge="1" parent="ndr8MPMgsZHjieb82Wtq-62" source="ndr8MPMgsZHjieb82Wtq-74" target="ndr8MPMgsZHjieb82Wtq-66">
          <mxGeometry relative="1" as="geometry" />
        </mxCell>
        <mxCell id="ndr8MPMgsZHjieb82Wtq-84" style="edgeStyle=none;curved=1;rounded=0;orthogonalLoop=1;jettySize=auto;html=1;exitX=1;exitY=0.5;exitDx=0;exitDy=0;entryX=0;entryY=0.5;entryDx=0;entryDy=0;fontSize=12;startSize=8;endSize=8;" edge="1" parent="ndr8MPMgsZHjieb82Wtq-62" source="ndr8MPMgsZHjieb82Wtq-70" target="ndr8MPMgsZHjieb82Wtq-78">
          <mxGeometry relative="1" as="geometry" />
        </mxCell>
        <mxCell id="ndr8MPMgsZHjieb82Wtq-85" style="edgeStyle=none;curved=1;rounded=0;orthogonalLoop=1;jettySize=auto;html=1;exitX=1;exitY=0.5;exitDx=0;exitDy=0;entryX=0;entryY=0.5;entryDx=0;entryDy=0;fontSize=12;startSize=8;endSize=8;" edge="1" parent="ndr8MPMgsZHjieb82Wtq-62" source="ndr8MPMgsZHjieb82Wtq-68" target="ndr8MPMgsZHjieb82Wtq-81">
          <mxGeometry relative="1" as="geometry" />
        </mxCell>
        <mxCell id="ndr8MPMgsZHjieb82Wtq-86" style="edgeStyle=none;curved=1;rounded=0;orthogonalLoop=1;jettySize=auto;html=1;exitX=1;exitY=0.5;exitDx=0;exitDy=0;entryX=0;entryY=0.5;entryDx=0;entryDy=0;fontSize=12;startSize=8;endSize=8;" edge="1" parent="ndr8MPMgsZHjieb82Wtq-62" source="ndr8MPMgsZHjieb82Wtq-80" target="ndr8MPMgsZHjieb82Wtq-75">
          <mxGeometry relative="1" as="geometry" />
        </mxCell>
        <mxCell id="ndr8MPMgsZHjieb82Wtq-87" style="edgeStyle=orthogonalEdgeStyle;rounded=1;orthogonalLoop=1;jettySize=auto;html=1;exitX=1;exitY=0.5;exitDx=0;exitDy=0;entryX=0;entryY=0.5;entryDx=0;entryDy=0;fontSize=12;startSize=8;endSize=8;" edge="1" parent="ndr8MPMgsZHjieb82Wtq-62" source="ndr8MPMgsZHjieb82Wtq-77" target="ndr8MPMgsZHjieb82Wtq-82">
          <mxGeometry relative="1" as="geometry">
            <Array as="points">
              <mxPoint x="258" y="266" />
              <mxPoint x="258" y="206" />
            </Array>
          </mxGeometry>
        </mxCell>
        <object label="%value%" placeholders="1" value="0" block_name="zeroCt" class_name="ConstantBlock" id="ndr8MPMgsZHjieb82Wtq-88">
          <mxCell style="ellipse;whiteSpace=wrap;html=1;comic=0;fillColor=#ffffff;fontSize=24;align=center;allowArrows=0;connectable=0;container=1;collapsible=0;recursiveResize=1;direction=west;resizable=0;metaEdit=1;" vertex="1" parent="ndr8MPMgsZHjieb82Wtq-62">
            <mxGeometry x="426.3422727272728" y="54.00076923076922" width="80" height="80" as="geometry" />
          </mxCell>
        </object>
        <object label="%name%" placeholders="1" name="OUT1" class_name="OutputPort" id="ndr8MPMgsZHjieb82Wtq-89">
          <mxCell style="triangle;fillColor=#ffffff;fontSize=14;points=[[1,0.5]];allowArrows=0;verticalAlign=middle;horizontal=1;spacingTop=0;align=left;spacingLeft=4;spacingRight=0;html=1;comic=0;treeFolding=0;treeMoving=0;movable=1;resizable=0;rotatable=1;deletable=1;editable=1;connectable=1;movableLabel=1;spacing=2;aspect=fixed;metaEdit=1;" vertex="1" parent="ndr8MPMgsZHjieb82Wtq-88">
            <mxGeometry x="70" y="32.5" width="10" height="15" as="geometry">
              <mxPoint x="6" y="-7" as="offset" />
            </mxGeometry>
          </mxCell>
        </object>
        <mxCell id="ndr8MPMgsZHjieb82Wtq-90" style="edgeStyle=orthogonalEdgeStyle;rounded=1;orthogonalLoop=1;jettySize=auto;html=1;exitX=1;exitY=0.5;exitDx=0;exitDy=0;entryX=0;entryY=0.5;entryDx=0;entryDy=0;fontSize=12;startSize=8;endSize=8;" edge="1" parent="ndr8MPMgsZHjieb82Wtq-62" source="ndr8MPMgsZHjieb82Wtq-89" target="ndr8MPMgsZHjieb82Wtq-65">
          <mxGeometry relative="1" as="geometry" />
        </mxCell>
        <object label="%name%" placeholders="1" name="xt" class_name="OutputPort" id="7oEzEHlFAZYDXKyeZvMJ-5">
          <mxCell style="triangle;fillColor=#ffffff;fontSize=14;points=[[0,0.5],[1,0.5]];allowArrows=0;verticalAlign=middle;horizontal=1;spacingTop=0;align=left;spacingLeft=4;spacingRight=0;html=1;comic=0;treeFolding=0;treeMoving=0;movable=1;resizable=0;rotatable=1;deletable=1;editable=1;connectable=1;movableLabel=1;spacing=2;aspect=fixed;metaEdit=1;" vertex="1" parent="ndr8MPMgsZHjieb82Wtq-62">
            <mxGeometry x="193.84227272727276" y="316.67076923076934" width="10" height="15" as="geometry">
              <mxPoint x="5" y="-7" as="offset" />
            </mxGeometry>
          </mxCell>
        </object>
        <mxCell id="7oEzEHlFAZYDXKyeZvMJ-6" style="edgeStyle=orthogonalEdgeStyle;rounded=1;orthogonalLoop=1;jettySize=auto;html=1;exitX=1;exitY=0.5;exitDx=0;exitDy=0;entryX=0;entryY=0.5;entryDx=0;entryDy=0;fontSize=12;startSize=8;endSize=8;" edge="1" parent="ndr8MPMgsZHjieb82Wtq-62" source="ndr8MPMgsZHjieb82Wtq-70" target="7oEzEHlFAZYDXKyeZvMJ-5">
          <mxGeometry relative="1" as="geometry" />
        </mxCell>
        <object label="%name%" placeholders="1" name="sinT" class_name="OutputPort" id="7oEzEHlFAZYDXKyeZvMJ-7">
          <mxCell style="triangle;fillColor=#ffffff;fontSize=14;points=[[0,0.5],[1,0.5]];allowArrows=0;verticalAlign=middle;horizontal=1;spacingTop=0;align=left;spacingLeft=4;spacingRight=0;html=1;comic=0;treeFolding=0;treeMoving=0;movable=1;resizable=0;rotatable=1;deletable=1;editable=1;connectable=1;movableLabel=1;spacing=2;aspect=fixed;metaEdit=1;" vertex="1" parent="ndr8MPMgsZHjieb82Wtq-62">
            <mxGeometry x="193.84227272727276" y="196.67076923076934" width="10" height="15" as="geometry">
              <mxPoint x="5" y="-7" as="offset" />
            </mxGeometry>
          </mxCell>
        </object>
        <mxCell id="7oEzEHlFAZYDXKyeZvMJ-8" style="edgeStyle=orthogonalEdgeStyle;rounded=1;orthogonalLoop=1;jettySize=auto;html=1;exitX=1;exitY=0.5;exitDx=0;exitDy=0;entryX=0;entryY=0.5;entryDx=0;entryDy=0;fontSize=12;startSize=8;endSize=8;" edge="1" parent="ndr8MPMgsZHjieb82Wtq-62" source="ndr8MPMgsZHjieb82Wtq-68" target="7oEzEHlFAZYDXKyeZvMJ-7">
          <mxGeometry relative="1" as="geometry" />
        </mxCell>
      </root>
    </mxGraphModel>
  </diagram>
</mxfile>
